<svg width="98" height="86" viewBox="0 0 98 86" fill="none" xmlns="http://www.w3.org/2000/svg">
<g id="briefcase-fill">
<path id="Vector" d="M44.4363 11C35.4162 11 28.1029 17.4177 28.1029 25.3333H24.0196C15.5263 25.3333 8.72758 31.0523 7.93949 38.3229C10.0057 38.9428 37.6743 47.0591 37.6743 47.0555C43.5338 48.772 53.5054 48.772 59.365 47.0555C59.365 47.0555 80.5247 40.8563 89.2263 38.3229C88.4709 31.0237 81.5334 25.3333 73.0196 25.3333H68.9363C68.9363 17.4177 61.623 11 52.6029 11H44.4363ZM44.4363 18.1667H52.6029C57.115 18.1667 60.7696 21.3737 60.7696 25.3333H36.2696C36.2696 21.3737 39.9242 18.1667 44.4363 18.1667ZM7.68628 45.8264V61.1667C7.68628 69.0822 14.9995 75.5 24.0196 75.5H73.0196C82.0397 75.5 89.3529 69.0822 89.3529 61.1667V45.8264L61.917 53.8889C54.3833 56.0926 42.6559 56.0926 35.1222 53.8889L7.68628 45.8264Z" fill="#FFDC4D"/>
</g>
</svg>
