<svg width="65" height="68" viewBox="0 0 65 68" fill="none"
    xmlns="http://www.w3.org/2000/svg">
    <g id="building-solid 1" clip-path="url(#clip0_946_13154)">
        <path id="Vector" d="M8.125 0.513794C3.63932 0.513794 0 3.32727 0 6.79504V61.2325C0 64.7003 3.63932 67.5138 8.125 67.5138H24.375V57.045C24.375 53.5773 28.0143 50.7638 32.5 50.7638C36.9857 50.7638 40.625 53.5773 40.625 57.045V67.5138H56.875C61.3607 67.5138 65 64.7003 65 61.2325V6.79504C65 3.32727 61.3607 0.513794 56.875 0.513794H8.125ZM10.8333 31.92C10.8333 30.7685 12.0521 29.8263 13.5417 29.8263H18.9583C20.4479 29.8263 21.6667 30.7685 21.6667 31.92V36.1075C21.6667 37.2591 20.4479 38.2013 18.9583 38.2013H13.5417C12.0521 38.2013 10.8333 37.2591 10.8333 36.1075V31.92ZM29.7917 29.8263H35.2083C36.6979 29.8263 37.9167 30.7685 37.9167 31.92V36.1075C37.9167 37.2591 36.6979 38.2013 35.2083 38.2013H29.7917C28.3021 38.2013 27.0833 37.2591 27.0833 36.1075V31.92C27.0833 30.7685 28.3021 29.8263 29.7917 29.8263ZM43.3333 31.92C43.3333 30.7685 44.5521 29.8263 46.0417 29.8263H51.4583C52.9479 29.8263 54.1667 30.7685 54.1667 31.92V36.1075C54.1667 37.2591 52.9479 38.2013 51.4583 38.2013H46.0417C44.5521 38.2013 43.3333 37.2591 43.3333 36.1075V31.92ZM13.5417 13.0763H18.9583C20.4479 13.0763 21.6667 14.0185 21.6667 15.17V19.3575C21.6667 20.5091 20.4479 21.4513 18.9583 21.4513H13.5417C12.0521 21.4513 10.8333 20.5091 10.8333 19.3575V15.17C10.8333 14.0185 12.0521 13.0763 13.5417 13.0763ZM27.0833 15.17C27.0833 14.0185 28.3021 13.0763 29.7917 13.0763H35.2083C36.6979 13.0763 37.9167 14.0185 37.9167 15.17V19.3575C37.9167 20.5091 36.6979 21.4513 35.2083 21.4513H29.7917C28.3021 21.4513 27.0833 20.5091 27.0833 19.3575V15.17ZM46.0417 13.0763H51.4583C52.9479 13.0763 54.1667 14.0185 54.1667 15.17V19.3575C54.1667 20.5091 52.9479 21.4513 51.4583 21.4513H46.0417C44.5521 21.4513 43.3333 20.5091 43.3333 19.3575V15.17C43.3333 14.0185 44.5521 13.0763 46.0417 13.0763Z" fill="#74C0FC"/>
    </g>
    <defs>
        <clipPath id="clip0_946_13154">
            <rect width="65" height="67" fill="white" transform="translate(0 0.513794)"/>
        </clipPath>
    </defs>
</svg>