<svg width="98" height="86" viewBox="0 0 98 86" fill="none" xmlns="http://www.w3.org/2000/svg">
<g id="easel-fill">
<path id="Vector" d="M49.1155 7.16284C47.425 7.16284 45.7137 7.99057 45.1596 9.73924L43.7561 14.3295H28.6989C21.9332 14.3295 16.4489 19.1419 16.4489 25.0795V50.1629C16.4489 56.1004 21.9332 60.9129 28.6989 60.9129H28.9541L24.7429 74.2393C24.1394 76.1456 25.3779 78.1881 27.5506 78.7184C29.7234 79.2488 32.0513 78.1595 32.6548 76.2531L37.5033 60.9129H45.0322V71.6629C45.0322 73.6409 46.8603 75.2462 49.1155 75.2462C51.3707 75.2462 53.1988 73.6409 53.1988 71.6629V60.9129H60.7277L65.5763 76.2531C66.1802 78.1595 68.5069 79.2488 70.6804 78.7184C72.8536 78.1881 74.0916 76.1456 73.4881 74.2393L69.277 60.9129H69.5322C76.2979 60.9129 81.7822 56.1004 81.7822 50.1629V25.0795C81.7822 19.1419 76.2979 14.3295 69.5322 14.3295H54.4749L53.0714 9.73924C52.5173 7.99057 50.8056 7.16284 49.1155 7.16284Z" fill="#FFBF60"/>
</g>
</svg>
