<svg xmlns="http://www.w3.org/2000/svg" width="29" height="26" viewBox="0 0 29 26" fill="none">
  <path d="M27.3222 25L20.9019 19M24.1121 11.5C24.1121 12.8789 23.8214 14.2443 23.2568 15.5182C22.6922 16.7921 21.8645 17.9496 20.8212 18.9246C19.7779 19.8996 18.5393 20.6731 17.1761 21.2007C15.813 21.7284 14.3519 22 12.8765 22C11.401 22 9.93995 21.7284 8.57679 21.2007C7.21362 20.6731 5.97502 19.8996 4.9317 18.9246C3.88838 17.9496 3.06077 16.7921 2.49613 15.5182C1.93149 14.2443 1.64087 12.8789 1.64087 11.5C1.64087 8.71523 2.82462 6.04451 4.9317 4.07538C7.03878 2.10625 9.8966 1 12.8765 1C15.8563 1 18.7141 2.10625 20.8212 4.07538C22.9283 6.04451 24.1121 8.71523 24.1121 11.5Z" stroke="#0F0F0F" stroke-width="1.5" stroke-linecap="round" stroke-linejoin="round"/>
</svg>