<svg xmlns="http://www.w3.org/2000/svg" width="19" height="20" viewBox="0 0 19 20" fill="none">
  <g clip-path="url(#clip0_788_388)">
    <path d="M10.4314 19.5C12.8239 16.9922 18.2803 10.9141 18.2803 7.5C18.2803 3.35938 14.2696 0 9.32616 0C4.38276 0 0.37207 3.35938 0.37207 7.5C0.37207 10.9141 5.82847 16.9922 8.22089 19.5C8.79451 20.0977 9.85781 20.0977 10.4314 19.5ZM9.32616 5C10.1178 5 10.8769 5.26339 11.4367 5.73223C11.9964 6.20107 12.3109 6.83696 12.3109 7.5C12.3109 8.16304 11.9964 8.79893 11.4367 9.26777C10.8769 9.73661 10.1178 10 9.32616 10C8.53457 10 7.7754 9.73661 7.21566 9.26777C6.65592 8.79893 6.34146 8.16304 6.34146 7.5C6.34146 6.83696 6.65592 6.20107 7.21566 5.73223C7.7754 5.26339 8.53457 5 9.32616 5Z" fill="#E15656"/>
  </g>
  <defs>
    <clipPath id="clip0_788_388">
      <rect width="17.9082" height="20" fill="white" transform="translate(0.37207)"/>
    </clipPath>
  </defs>
</svg>