<svg width="98" height="86" viewBox="0 0 98 86" fill="none" xmlns="http://www.w3.org/2000/svg">
<g id="shield-fill">
<path id="Vector" d="M47.4599 7.28903C43.8706 8.63278 22.3351 16.6989 18.7499 18.0426C17.2432 18.6052 16.3245 19.8522 16.3245 21.2891C16.3245 36.9841 17.039 44.0074 20.2812 52.095C24.5238 62.6837 32.8538 71.1225 46.9495 78.1924C48.203 78.8231 49.7792 78.8231 51.0328 78.1924C65.255 71.058 73.6218 62.6479 77.8277 52.095C81.029 44.0647 81.6578 37.3855 81.6578 21.2891C81.6578 19.8594 80.7309 18.6088 79.2323 18.0426L50.7796 7.28903C49.7506 6.90203 48.4889 6.90203 47.4599 7.28903Z" fill="#54BD95"/>
</g>
</svg>
