<svg xmlns="http://www.w3.org/2000/svg" width="30" height="30" viewBox="0 0 30 30" fill="none">
  <path d="M28.1249 15.0001C28.1279 15.3846 28.011 15.7606 27.7904 16.0756C27.5699 16.3906 27.2567 16.6291 26.8944 16.7579L19.46 19.4614L16.7577 26.8946C16.6245 27.2535 16.3847 27.563 16.0704 27.7815C15.7562 28 15.3826 28.1172 14.9999 28.1172C14.6171 28.1172 14.2435 28 13.9293 27.7815C13.6151 27.563 13.3753 27.2535 13.2421 26.8946L10.5385 19.4532L3.10534 16.7579C2.74651 16.6247 2.43703 16.3849 2.21849 16.0707C1.99995 15.7565 1.88281 15.3829 1.88281 15.0001C1.88281 14.6174 1.99995 14.2438 2.21849 13.9295C2.43703 13.6153 2.74651 13.3755 3.10534 13.2423L10.5467 10.5388L13.2421 3.10558C13.3753 2.74675 13.6151 2.43728 13.9293 2.21874C14.2435 2.0002 14.6171 1.88306 14.9999 1.88306C15.3826 1.88306 15.7562 2.0002 16.0704 2.21874C16.3847 2.43728 16.6245 2.74675 16.7577 3.10558L19.4612 10.547L26.8944 13.2423C27.2567 13.3711 27.5699 13.6096 27.7904 13.9247C28.011 14.2397 28.1279 14.6156 28.1249 15.0001Z" fill="#2F1C48"/>
</svg>