<svg xmlns="http://www.w3.org/2000/svg" width="517" height="50" viewBox="0 0 517 50" fill="none">
    <path d="M486.363 24.4262C485.655 24.4706 484.94 24.5027 484.247 24.5666C483.796 24.6067 483.603 24.5001 483.302 24.4458C483.201 24.4269 483.094 24.3883 483.001 24.3939C482.3 24.4382 481.599 24.4874 480.898 24.5367C480.684 24.634 480.55 24.7626 480.221 24.8116C479.899 24.8581 479.52 24.8608 479.163 24.8855C478.691 24.9159 478.219 24.9463 477.747 24.9743C477.511 24.9882 477.318 25.0363 477.24 25.1252C477.226 25.14 477.383 25.1757 477.469 25.1972C477.756 25.2688 478.036 25.3502 478.351 25.4044C478.652 25.4563 479.023 25.3652 479.346 25.4317C480.07 25.5812 480.077 25.5786 480.627 25.5452C481.099 25.5148 481.571 25.482 482.043 25.459C482.136 25.4534 482.244 25.4894 482.344 25.5083C482.645 25.5602 482.839 25.6816 483.282 25.6317C483.618 25.5925 483.99 25.5825 484.341 25.5603C484.634 25.6294 484.907 25.7084 485.222 25.7626C485.516 25.8145 485.602 25.8557 485.445 25.928C485.303 25.9953 485.103 26.0238 484.838 26.0306C484.602 26.0347 484.366 26.0585 484.13 26.0725C484.008 26.0807 483.894 26.0865 483.78 26.0946C483.329 26.1249 483.329 26.1249 482.505 25.9737C482.183 25.9146 481.819 26.0032 481.511 25.9464C481.303 25.9087 481.123 25.851 480.923 25.8107C480.837 25.7942 480.701 25.7927 480.594 25.7984C480.236 25.8181 479.878 25.833 479.535 25.8673C479.292 25.8912 479.15 25.961 479.179 26.0295C479.186 26.0564 479.358 26.0945 479.458 26.0962C479.687 26.0995 479.93 26.0634 480.152 26.079C480.367 26.0946 480.589 26.1421 480.747 26.195C481.07 26.3056 481.434 26.2023 481.742 26.2296C482.064 26.2592 482.329 26.3555 482.637 26.4122C482.716 26.4264 482.866 26.4007 482.988 26.3925C483.338 26.3728 483.689 26.3555 484.039 26.3358C484.333 26.4049 484.648 26.4665 484.914 26.5456C485.394 26.6895 485.91 26.7422 486.531 26.6665C486.882 26.6247 487.225 26.637 487.505 26.7308C487.792 26.8269 488.121 26.8147 488.486 26.7925C488.822 26.7704 489.165 26.7139 489.509 26.7802C490.254 26.9271 490.261 26.9344 491.14 26.8691C491.405 26.8501 491.605 26.8437 491.806 26.8987C491.992 26.949 492.193 26.9917 492.387 27.0394C492.737 27.0197 493.095 27 493.445 26.9778C493.896 26.9476 494.146 26.9801 494.254 27.1168C494.32 27.1998 494.349 27.2757 494.507 27.3311C494.693 27.3985 494.893 27.3946 495.165 27.373C495.423 27.3539 495.608 27.3256 495.715 27.2365C495.758 27.1993 495.843 27.1643 495.922 27.1343C495.986 27.1118 496.086 27.0767 496.143 27.0812C496.25 27.0902 496.394 27.1162 496.43 27.1478C496.783 27.4424 496.783 27.4448 497.141 27.5282C497.535 27.6211 497.944 27.7041 498.302 27.8095C498.625 27.903 498.947 27.859 499.297 27.8564C499.562 27.8545 499.734 27.9171 499.713 27.9811C499.699 28.018 499.599 28.0728 499.513 28.0783C498.813 28.1324 498.105 28.1792 497.397 28.2187C497.311 28.2242 497.204 28.1808 497.103 28.1594C496.903 28.1167 496.723 28.0492 496.508 28.036C496.294 28.0228 496.044 28.0615 495.808 28.0754C495.572 28.0894 495.321 28.1232 495.107 28.1051C494.892 28.087 494.72 28.017 494.519 27.9718C494.426 27.9503 494.297 27.9194 494.218 27.9273C493.696 27.99 493.309 27.9117 492.936 27.8064C492.858 27.7848 492.722 27.7711 492.621 27.7767C491.792 27.8244 490.97 27.8794 490.14 27.932C489.804 27.9541 489.531 27.8701 489.459 27.7258C489.422 27.645 489.35 27.5645 489.35 27.4835C489.348 27.3362 488.954 27.258 488.668 27.2773C488.196 27.3052 487.717 27.3283 487.252 27.3684C486.874 27.4006 486.551 27.3735 486.293 27.287C485.992 27.1885 485.649 27.2106 485.306 27.24C485.048 27.2615 484.977 27.3431 484.993 27.5467C485.009 27.7111 484.887 27.7635 484.423 27.7939C483.836 27.8325 483.243 27.8711 482.649 27.9024C482.556 27.908 482.449 27.867 482.355 27.8456C482.155 27.8028 481.975 27.7329 481.761 27.7197C481.546 27.7041 481.296 27.7427 481.06 27.7591C480.824 27.7731 480.574 27.8093 480.359 27.7936C480.144 27.778 479.965 27.7056 479.771 27.6604C479.678 27.6389 479.563 27.6078 479.47 27.6134C478.998 27.6364 478.526 27.6693 478.055 27.6997C477.525 27.733 477.525 27.733 476.773 27.5862C476.429 27.5199 476.086 27.5764 475.75 27.5984C475.392 27.6206 475.056 27.6329 474.776 27.5367C474.59 27.4742 474.382 27.4364 474.161 27.4502C473.567 27.484 472.981 27.525 472.387 27.5587C472.287 27.5644 472.151 27.5531 472.072 27.5315C471.692 27.4312 471.32 27.3528 470.791 27.4082C470.333 27.4556 469.84 27.4616 469.382 27.5067C469.132 27.5306 469.018 27.61 469.068 27.671C469.097 27.7027 469.248 27.7384 469.348 27.7377C469.577 27.7385 469.827 27.6999 470.042 27.7131C470.486 27.7393 470.709 27.944 471.288 27.8833C471.631 27.8465 471.989 27.8317 472.346 27.8193C472.439 27.8161 472.54 27.8621 472.64 27.8859C472.927 27.9501 473.178 28.0342 473.592 27.9871C473.936 27.9502 474.3 27.9378 474.651 27.9157C475.208 27.8797 475.209 27.8822 475.932 28.0268C476.276 28.0955 476.619 28.0366 476.955 28.017C477.206 28.0029 477.441 27.9766 477.642 28.0096C477.95 28.0589 478.173 28.1751 478.552 28.165C478.909 28.1551 479.26 28.1182 479.617 28.1034C479.839 28.0944 480.047 28.1322 480.226 28.1972C480.413 28.2622 480.613 28.2902 480.856 28.2737C481.207 28.2515 481.564 28.2244 481.922 28.2096C482.022 28.2064 482.137 28.2277 482.23 28.2467C482.431 28.2894 482.624 28.3396 482.818 28.3848C483.168 28.3676 483.526 28.3601 483.869 28.3282C484.133 28.3042 484.319 28.3127 484.535 28.3602C484.807 28.4246 485.03 28.5408 485.473 28.4812C485.694 28.4526 485.952 28.4581 486.173 28.4319C486.445 28.3981 486.631 28.409 486.825 28.4812C487.191 28.6186 487.649 28.6177 488.12 28.5603C488.635 28.4977 489.022 28.5637 489.409 28.6689C489.818 28.7789 489.818 28.7765 490.135 29.0467C490.228 29.1246 490.493 29.1595 490.715 29.1432C491.087 29.116 491.409 29.1259 491.681 29.2173C491.968 29.3159 492.311 29.3011 492.662 29.2716C493.127 29.2314 493.591 29.1962 493.972 29.3359C494.158 29.4033 494.359 29.419 494.609 29.4C495.317 29.3507 496.032 29.3186 496.726 29.2596C497.147 29.2222 497.391 29.299 497.678 29.3632C498.065 29.4513 498.488 29.5293 498.489 29.7232C498.489 29.7551 498.59 29.7912 498.676 29.8152C498.862 29.8654 499.063 29.9081 499.257 29.9559C499.543 30.0274 499.823 30.0868 500.216 30.0447C500.559 30.0103 500.924 29.9979 501.274 29.9733C501.624 29.9487 501.946 29.9341 502.262 30.0251C502.628 30.128 503.015 30.2259 503.43 30.3015C503.724 30.3559 504.11 30.2574 504.425 30.3312C504.619 30.3765 504.805 30.4291 505.013 30.4669C505.099 30.4835 505.235 30.4702 505.349 30.4645C505.585 30.453 505.828 30.4439 506.057 30.4177C506.321 30.3888 506.522 30.3923 506.722 30.4473C506.909 30.4975 507.095 30.5673 507.31 30.5805C507.632 30.6003 507.989 30.4995 508.312 30.6102C508.477 30.6654 508.685 30.718 508.9 30.7336C509.114 30.7493 509.364 30.7106 509.593 30.7114C509.694 30.7107 509.815 30.7491 509.873 30.7806C509.909 30.7976 509.859 30.8446 509.809 30.8695C509.745 30.8994 509.652 30.9394 509.559 30.9449C508.852 30.9942 508.144 31.0361 507.436 31.0829C507.014 31.1105 507.014 31.1105 506.161 30.962C505.961 30.9266 505.739 30.9355 505.489 30.9545C505.153 30.979 504.81 31.0232 504.459 30.9816C504 30.8179 503.434 30.8072 502.834 30.8754C502.584 30.9042 502.355 30.9058 502.168 30.8605C501.774 30.7701 501.359 30.6871 501.007 30.5792C500.735 30.4952 500.606 30.4888 500.492 30.6074C500.457 30.6445 500.421 30.684 500.429 30.7184C500.473 30.8408 500.552 30.9605 500.596 31.083C500.611 31.1172 500.554 31.1569 500.518 31.194C500.405 31.298 500.254 31.2916 500.003 31.2075C499.752 31.1234 499.451 31.0691 499.051 31.1113C498.708 31.1481 498.336 31.1459 497.993 31.1852C497.464 31.243 497.091 31.1671 496.711 31.0642C496.632 31.0427 496.496 31.0314 496.396 31.037C495.331 31.1012 494.273 31.1726 493.207 31.2367C492.978 31.2506 492.77 31.2153 492.591 31.1503C492.404 31.0854 492.197 31.0525 491.968 31.0664C491.024 31.1247 490.08 31.1782 489.136 31.2488C488.75 31.2786 488.442 31.2488 488.177 31.1648C487.976 31.1024 487.79 31.0841 487.539 31.0933C487.268 31.1026 487.075 31.1286 486.939 31.2007C486.811 31.2704 486.904 31.3115 487.191 31.3634C487.499 31.4201 487.786 31.4942 488.08 31.5608C488.316 31.5493 488.552 31.5279 488.781 31.5287C488.881 31.528 488.974 31.5716 489.075 31.5954C489.361 31.6645 489.626 31.7338 490.034 31.6916C490.377 31.6548 490.742 31.6448 491.092 31.6202C491.578 31.5897 491.578 31.5897 492.367 31.7387C492.567 31.7765 492.782 31.7725 493.039 31.7486C493.261 31.7298 493.49 31.7625 493.648 31.8351C493.713 31.864 493.692 31.9133 493.557 32.0763C493.558 32.1966 493.708 32.1415 493.757 32.0626C493.835 31.9491 493.684 31.9134 493.399 31.9768C493.199 32.0224 493.099 32.087 493.15 32.1382C493.179 32.165 493.315 32.1984 493.557 32.0763C494.185 31.9245 494.665 31.9039 495.122 31.8613C495.394 31.8372 495.565 31.8458 495.781 31.9081C496.039 31.9824 496.297 32.0616 496.719 32.0192C497.176 31.9718 497.663 31.9633 498.127 31.9232C498.556 31.8857 498.779 31.9922 499.051 32.054C499.381 32.1278 499.745 32.0392 500.046 32.0813C500.361 32.1232 500.584 32.2296 500.949 32.2466C501.478 32.1765 501.815 32.2969 502.216 32.375C502.531 32.4341 502.903 32.3774 503.239 32.348C503.618 32.3158 503.933 32.3406 504.198 32.4271C504.5 32.5256 504.836 32.5011 505.179 32.4765C505.98 32.4216 506.008 32.4141 506.474 32.5457C506.811 32.6415 507.133 32.595 507.469 32.5803C507.763 32.6445 508.05 32.7136 508.358 32.7703C508.437 32.7845 508.587 32.7589 508.708 32.7507C509.059 32.7285 509.416 32.7063 509.766 32.6841C510.002 32.6702 510.252 32.6315 510.467 32.6447C510.682 32.6604 510.861 32.7303 511.055 32.7755C511.248 32.8208 511.449 32.866 511.636 32.9138C511.922 32.9854 512.195 33.0448 512.595 33.0051C512.938 32.9707 513.296 32.9583 513.653 32.9336C514.104 32.9034 514.089 32.9109 514.928 33.0522C515.379 33.1299 515.843 33.0284 516.301 33.0153C516.53 33.0087 516.752 33.0341 516.91 33.1042C516.974 33.1332 516.953 33.1825 516.975 33.224C515.795 33.2988 514.608 33.3638 513.443 33.4532C512.992 33.4883 512.756 33.4016 512.512 33.3297C512.11 33.2148 511.582 33.3904 511.202 33.2409C510.972 33.1518 510.643 33.1026 510.249 33.1496C510.021 33.1758 509.777 33.1751 509.542 33.1989C508.941 33.2572 508.39 33.2636 507.91 33.0977C507.744 33.0399 507.508 33.0097 507.336 32.9545C507.135 32.8945 506.942 32.8615 506.706 32.8755C505.64 32.9421 504.582 33.0086 503.524 33.08C503.431 33.0856 503.338 33.1231 503.26 33.1507C503.06 33.2209 503.125 33.2744 503.447 33.3163C503.554 33.3303 503.641 33.3616 503.741 33.3854C503.934 33.4306 504.114 33.503 504.328 33.5187C504.543 33.5343 504.794 33.4981 505.03 33.4842C505.266 33.4702 505.516 33.4316 505.73 33.4448C505.945 33.4604 506.124 33.5303 506.325 33.5731C506.418 33.5945 506.533 33.6305 506.626 33.6274C507.098 33.6092 507.563 33.5789 508.035 33.5534C508.329 33.6176 508.58 33.7115 508.931 33.7311C509.152 33.7443 509.388 33.7155 509.617 33.7188C509.717 33.7205 509.846 33.7565 509.897 33.788C509.926 33.8074 509.833 33.8572 509.762 33.8823C509.49 33.9775 509.118 33.963 508.782 33.9949C508.418 34.0294 508.089 34.022 507.809 33.9282C507.622 33.8657 507.414 33.8329 507.186 33.8468C506.592 33.883 506.006 33.924 505.412 33.9553C505.312 33.9609 505.19 33.9397 505.097 33.9232C504.345 33.7788 504.345 33.7739 503.816 33.8096C503.036 33.8619 503.036 33.8618 502.513 33.7355C502.413 33.7116 502.305 33.6658 502.219 33.6689C501.39 33.7141 500.567 33.7593 499.745 33.8217C499.473 33.8408 499.287 33.8421 499.087 33.7797C498.914 33.727 498.714 33.667 498.499 33.6538C498.277 33.6407 498.034 33.6793 497.798 33.6933C497.562 33.7072 497.312 33.7409 497.104 33.7228C496.89 33.7047 496.703 33.6373 496.517 33.5895C496.323 33.5394 496.116 33.5433 495.851 33.5648C495.036 33.6271 495.029 33.6199 494.219 33.4735C494.126 33.4569 494.004 33.4382 493.904 33.4438C493.311 33.4775 492.724 33.5186 492.131 33.5523C491.902 33.5662 491.68 33.5359 491.522 33.4658C491.457 33.4368 491.478 33.3876 491.435 33.2921C491.384 33.2704 491.442 33.3093 491.456 33.346C491.564 33.3403 491.693 33.3443 491.771 33.3241C491.971 33.276 492.071 33.2139 492.02 33.1627C491.991 33.1359 491.855 33.1025 491.769 33.1031C491.612 33.1042 491.477 33.1592 491.435 33.2921C490.985 33.3764 490.505 33.397 490.041 33.4396C489.769 33.4661 489.597 33.4551 489.382 33.3928C489.124 33.3161 488.859 33.2419 488.437 33.2842C487.979 33.3317 487.493 33.3426 487.021 33.3803C486.478 33.4235 486.24 33.2042 485.782 33.2124C485.31 33.2207 484.838 33.2659 484.366 33.2987C483.951 33.3263 483.951 33.3262 483.092 33.1728C482.776 33.1162 482.405 33.2048 482.097 33.1456C481.889 33.1078 481.71 33.0502 481.509 33.0099C481.423 32.9933 481.287 32.9943 481.18 33C480.587 33.0337 479.986 33.0577 479.414 33.1158C478.763 33.1843 478.269 33.1191 477.803 32.9776C477.217 33.0088 476.623 33.0278 476.044 33.0786C475.622 33.116 475.378 33.0368 475.092 32.9725C474.991 32.9512 474.905 32.915 474.798 32.9059C474.69 32.8969 474.562 32.9174 474.447 32.9256C473.975 32.956 473.489 32.9718 473.031 33.0193C472.467 33.0798 472.25 32.88 471.814 32.8586C471.521 32.981 471.365 33.1466 470.786 33.163C470.314 33.1762 469.842 33.2189 469.37 33.2493C469.134 33.2633 468.898 33.2797 468.662 33.2937C468.283 33.3185 468.105 33.4155 468.185 33.5623C468.229 33.643 468.265 33.7237 468.301 33.8045C468.374 33.9488 468.196 34.0729 467.896 34.0922C467.066 34.1448 466.244 34.1998 465.415 34.2475C465.193 34.2614 464.978 34.2212 464.798 34.1562C464.612 34.0912 464.404 34.0633 464.176 34.0772C463.346 34.1298 462.524 34.1848 461.694 34.2325C461.601 34.2381 461.479 34.2144 461.386 34.1954C461.186 34.1527 460.992 34.1025 460.799 34.0573C460.327 34.0828 459.862 34.1008 459.397 34.1336C458.646 34.1832 458.646 34.1857 458.094 34.0546C457.994 34.0308 457.893 33.9849 457.8 33.988C457.443 34.0004 457.092 34.0274 456.735 34.0521C455.684 34.1235 455.684 34.1235 455.375 34.052C455.096 33.9853 454.845 33.9036 454.423 33.946C453.965 33.9934 453.479 34.0117 453.007 34.0396C452.657 34.0593 452.306 34.0815 451.956 34.0889C451.863 34.092 451.762 34.0461 451.662 34.0223C451.375 33.9482 451.096 33.8888 450.703 33.9334C450.474 33.9596 450.231 33.9663 449.995 33.9802C449.38 34.019 449.38 34.019 448.37 33.8789C448.27 33.8649 448.148 33.8486 448.048 33.8567C447.218 33.9069 446.396 33.9619 445.566 34.0096C445.466 34.0152 445.345 34.0013 445.244 33.9898C444.113 33.8555 444.113 33.8555 442.912 33.9329C442.454 33.9607 442.44 33.9707 441.959 33.844C441.744 33.7891 441.565 33.7633 441.315 33.7823C440.371 33.848 439.42 33.8942 438.483 33.9696C438.062 34.0021 437.818 33.9302 437.531 33.866C437.431 33.8446 437.323 33.7963 437.237 33.7994C436.293 33.8528 435.349 33.916 434.405 33.9695C434.319 33.975 434.212 33.9267 434.111 33.9053C433.918 33.8625 433.731 33.7975 433.517 33.7844C433.295 33.7712 433.052 33.8098 432.809 33.8238C432.215 33.86 432.215 33.8575 431.527 33.7176C431.434 33.6987 431.312 33.6725 431.219 33.6781C430.275 33.734 429.324 33.7826 428.388 33.8605C427.851 33.9036 427.486 33.835 427.106 33.7347C427.027 33.7131 426.891 33.7043 426.791 33.7099C425.726 33.774 424.667 33.8455 423.602 33.9096C423.38 33.9235 423.165 33.8833 422.986 33.8207C422.699 33.7221 422.363 33.7368 422.005 33.7615C421.183 33.8189 421.176 33.8166 420.688 33.7022C420.588 33.6784 420.502 33.6471 420.394 33.6356C420.294 33.624 420.166 33.6323 420.058 33.638C419.586 33.6659 419.114 33.6963 418.642 33.7267C418.17 33.7571 417.691 33.7753 417.226 33.8204C416.655 33.876 416.381 33.7184 415.98 33.6476C415.394 33.6838 414.793 33.7077 414.214 33.7634C413.771 33.8059 413.563 33.6994 413.269 33.645C413.169 33.6261 413.061 33.5851 412.968 33.5907C411.902 33.6524 410.837 33.719 409.779 33.7928C409.521 33.8094 409.349 33.791 409.134 33.7336C408.654 33.6045 408.632 33.6096 407.832 33.6644C407.481 33.6891 407.145 33.7111 406.844 33.6126C406.578 33.5237 406.256 33.5039 405.877 33.5361C405.413 33.5762 404.934 33.5993 404.462 33.6273C403.99 33.6577 403.518 33.6979 403.046 33.7135C402.667 33.7285 402.437 33.6148 402.136 33.5581C402.043 33.5416 401.914 33.54 401.807 33.5457C401.335 33.5712 400.848 33.5918 400.391 33.6369C399.833 33.6924 399.525 33.5596 399.131 33.4839C399.045 33.4673 398.901 33.4782 398.794 33.4863C397.965 33.5365 397.142 33.5915 396.313 33.6441C396.019 33.5799 395.718 33.5182 395.424 33.4541C394.952 33.482 394.48 33.5124 394.008 33.5403C393.651 33.5625 393.286 33.5725 392.95 33.6118C392.514 33.664 392.298 33.5502 392.005 33.4958C391.904 33.4769 391.797 33.4359 391.704 33.4415C391.11 33.4728 390.517 33.5065 389.93 33.5525C389.373 33.5982 389.149 33.3788 388.691 33.3846C388.219 33.3904 387.733 33.4258 387.276 33.4733C386.747 33.5287 386.374 33.4528 385.994 33.3499C385.915 33.3284 385.779 33.3171 385.679 33.3227C385.085 33.3565 384.499 33.3975 383.906 33.4312C383.805 33.4369 383.684 33.4255 383.584 33.4115C382.452 33.2747 382.452 33.2723 381.959 33.3053C381.608 33.3275 381.251 33.3546 380.893 33.3694C380.793 33.375 380.671 33.3538 380.578 33.3348C379.833 33.1904 379.833 33.188 379.296 33.2213C378.824 33.2517 378.352 33.2821 377.881 33.3125C377.587 33.2483 377.286 33.1866 376.992 33.1225C376.406 33.1586 375.805 33.1874 375.226 33.2358C374.954 33.2574 374.775 33.2513 374.567 33.1914C374.309 33.1196 374.051 33.0356 373.622 33.0804C373.164 33.1279 372.678 33.1363 372.213 33.1764C371.656 33.2246 371.425 33.0029 370.974 33.0086C370.502 33.0144 370.016 33.0498 369.558 33.0973C369.029 33.1527 368.657 33.0768 368.277 32.9739C368.198 32.9524 368.062 32.9411 367.962 32.9467C366.66 33.0273 365.366 33.1078 364.065 33.1932C363.264 33.2456 363.264 33.2481 361.739 33.124C361.632 33.115 361.517 33.106 361.41 33.1117C360.938 33.1371 360.451 33.1578 359.994 33.2028C359.436 33.2584 359.127 33.128 358.733 33.0499C358.647 33.0333 358.512 33.0441 358.397 33.0498C358.04 33.0696 357.689 33.0942 357.332 33.1164C356.86 33.1468 356.388 33.1772 355.916 33.2076C355.622 33.1459 355.321 33.0817 355.027 33.02C354.441 33.0561 353.84 33.0777 353.261 33.1334C352.818 33.1758 352.609 33.0742 352.316 33.0174C352.215 32.9985 352.108 32.9575 352.015 32.9606C350.949 33.0223 349.884 33.0864 348.826 33.1628C348.389 33.1954 348.188 33.0863 347.894 33.032C347.794 33.0155 347.679 32.9844 347.586 32.99C346.879 33.0295 346.171 33.0763 345.463 33.1231C345.062 33.1505 345.062 33.1505 344.188 33.0046C344.088 32.9881 343.973 32.9718 343.873 32.9774C341.628 33.1163 339.39 33.2625 337.144 33.4014C336.915 33.4153 336.708 33.38 336.528 33.315C336.342 33.25 336.134 33.2171 335.905 33.2311C334.961 33.2894 334.01 33.3429 333.074 33.4135C332.687 33.4432 332.38 33.4135 332.114 33.3295C331.913 33.2671 331.727 33.2439 331.477 33.2604C331.005 33.2933 330.533 33.3212 330.061 33.3516C329.589 33.382 329.117 33.4124 328.645 33.4428C328.173 33.4732 327.694 33.4914 327.229 33.5365C326.658 33.5921 326.377 33.4419 325.983 33.3686C325.275 33.4106 324.567 33.4525 323.867 33.4968C322.923 33.5551 321.979 33.6184 321.035 33.6743C320.949 33.6798 320.841 33.6364 320.741 33.615C320.447 33.5557 320.232 33.4713 319.796 33.5015C317.679 33.6468 315.548 33.7726 313.425 33.9155C312.981 33.9457 312.787 33.8415 312.486 33.7872C312.386 33.7708 312.271 33.7372 312.178 33.7428C310.998 33.8127 309.819 33.8899 308.639 33.9646C308.16 33.9951 308.16 33.9951 307.357 33.8486C307.264 33.8321 307.142 33.8109 307.042 33.8165C305.505 33.911 303.974 34.0104 302.437 34.1074C302.208 34.1213 302 34.0884 301.814 34.0235C301.634 33.9585 301.419 33.9232 301.198 33.9371C299.782 34.0258 298.359 34.1121 296.95 34.2082C296.571 34.2355 296.256 34.2156 295.984 34.1292C295.79 34.0668 295.597 34.0411 295.354 34.0576C293.23 34.1932 291.106 34.3238 288.982 34.4668C288.575 34.4942 288.288 34.4496 288.03 34.3705C287.822 34.3081 287.643 34.2971 287.386 34.3088C287.114 34.323 286.95 34.3512 286.8 34.426C286.608 34.5231 286.487 34.6443 286.029 34.6549C285.557 34.6657 285.078 34.6986 284.613 34.7437C284.17 34.7886 283.962 34.6796 283.682 34.6153C283.474 34.5702 283.281 34.5642 283.017 34.5882C282.774 34.6096 282.624 34.6524 282.481 34.732C282.168 34.9012 282.139 34.9014 281.752 34.7986C281.544 34.7436 281.358 34.7007 281.129 34.7122C280.185 34.7681 279.241 34.8289 278.297 34.8921C277.754 34.928 277.747 34.9329 277.338 34.8131C277.137 34.7532 276.944 34.7251 276.708 34.7415C274.112 34.9075 271.516 35.0685 268.921 35.2419C268.52 35.2693 268.248 35.2197 267.961 35.1481C267.868 35.1242 267.775 35.0905 267.667 35.0814C267.56 35.0724 267.438 35.0831 267.324 35.0888C265.436 35.208 263.541 35.3223 261.66 35.4536C261.231 35.4837 261.002 35.4068 260.708 35.3451C260.608 35.3237 260.522 35.2899 260.414 35.2809C260.307 35.2743 260.178 35.2924 260.064 35.3006C258.176 35.4197 256.281 35.534 254.401 35.6654C253.95 35.6956 253.756 35.5939 253.462 35.542C253.362 35.523 253.254 35.487 253.161 35.4926C252.568 35.5238 251.982 35.5649 251.388 35.601C249.972 35.6922 248.556 35.7785 247.14 35.8722C246.597 35.908 246.359 35.6912 245.901 35.7043C245.308 35.7208 244.721 35.7742 244.128 35.8128C243.656 35.8432 243.184 35.8712 242.712 35.904C242.247 35.9344 242.247 35.9343 241.087 35.8003C240.987 35.7887 240.865 35.7724 240.765 35.778C239.113 35.8807 237.454 35.9835 235.81 36.0935C235.431 36.1183 235.116 36.1083 234.843 36.0195C234.65 35.957 234.449 35.9265 234.213 35.943C231.732 36.1007 229.258 36.2585 226.776 36.4138C226.683 36.4194 226.561 36.3957 226.468 36.3767C226.268 36.3339 226.074 36.2838 225.881 36.2385C225.738 36.296 225.552 36.3489 225.46 36.4134C225.332 36.5003 225.16 36.526 224.889 36.5427C224.617 36.5594 224.445 36.5557 224.23 36.4934C223.972 36.4167 223.707 36.3572 223.285 36.3848C220.689 36.5581 218.093 36.7168 215.497 36.8876C215.068 36.9153 214.867 36.8087 214.567 36.7543C214.466 36.7379 214.351 36.7117 214.258 36.7173C213.193 36.7814 212.135 36.8504 211.069 36.917C208.116 37.1051 205.163 37.286 202.217 37.4839C201.68 37.5197 201.315 37.4609 200.935 37.3581C200.856 37.3365 200.72 37.3252 200.62 37.3309C196.487 37.5913 192.354 37.8543 188.228 38.1171C188.006 38.131 187.791 38.0933 187.612 38.0307C187.425 37.9658 187.218 37.9354 186.989 37.9493C185.101 38.0684 183.213 38.1876 181.325 38.3092C180.853 38.3395 180.846 38.342 180.359 38.2277C180.258 38.2039 180.151 38.158 180.072 38.1635C179.908 38.1769 179.751 38.2394 179.637 38.3237C179.523 38.4129 179.344 38.4388 179.08 38.4578C178.808 38.477 178.629 38.4709 178.421 38.4135C178.156 38.3417 177.912 38.2723 177.483 38.2999C172.056 38.6532 166.628 38.9941 161.201 39.3449C160.765 39.3726 160.564 39.271 160.263 39.2166C160.162 39.2002 160.062 39.1763 159.955 39.1722C159.84 39.1681 159.719 39.1837 159.604 39.1919C150.752 39.7539 141.899 40.3184 133.047 40.8804C132.517 40.9136 132.525 40.9136 131.947 41.1436C131.876 41.1711 131.783 41.2086 131.683 41.2142C128.972 41.3908 126.255 41.5626 123.538 41.7343C122.358 41.8091 121.178 41.8863 119.998 41.9586C119.576 41.9837 119.576 41.9837 118.57 42.2561C118.484 42.2788 118.384 42.309 118.284 42.3147C113.565 42.6162 108.845 42.9177 104.118 43.2143C103.746 43.2367 103.446 43.283 103.276 43.4021C103.155 43.4864 102.998 43.5366 102.762 43.5531C99.4581 43.7634 96.1545 43.9762 92.8437 44.1817C92.4504 44.2066 92.2148 44.277 92.0224 44.3815C91.9583 44.4163 91.9014 44.456 91.8086 44.4812C91.7229 44.5039 91.5942 44.5122 91.487 44.5204C88.6552 44.7003 85.8237 44.8852 82.9847 45.0578C82.5628 45.0829 82.3918 45.175 82.1851 45.2722C82.1138 45.3046 82.064 45.3492 81.9712 45.372C81.8783 45.3923 81.7424 45.3932 81.628 45.399C79.2682 45.5485 76.9086 45.7005 74.5488 45.85C74.0909 45.841 73.9918 45.9841 73.7707 46.0717C73.6922 46.1017 73.6354 46.1414 73.5426 46.1617C73.4426 46.182 73.3136 46.1805 73.1921 46.1863C71.3042 46.3054 69.4165 46.4319 67.5215 46.5437C67.0853 46.569 67.0004 46.6948 66.765 46.7824C66.6865 46.81 66.6083 46.8523 66.5153 46.8603C65.3355 46.94 64.1556 47.0148 62.9757 47.0871C62.5825 47.112 62.5824 47.1095 61.8904 47.3576C61.8119 47.3851 61.7191 47.4153 61.619 47.4234C59.8528 47.5392 58.0794 47.6501 56.306 47.7635C56.0772 47.7774 55.9203 47.8375 55.8065 47.9218C55.6927 48.0061 55.5286 48.0613 55.2998 48.0752C53.8839 48.1664 52.468 48.26 51.0521 48.3438C50.6588 48.3663 50.4018 48.4295 50.231 48.5412C50.1029 48.6256 49.9458 48.6685 49.6955 48.685C48.2797 48.7738 46.8639 48.8699 45.4408 48.9488C45.026 48.9715 44.812 49.0565 44.6411 49.1608C44.5059 49.2453 44.3487 49.2759 44.0841 49.2925C41.4883 49.4535 38.8855 49.6146 36.297 49.7903C35.8608 49.8205 35.6383 49.7362 35.3517 49.6768C34.9432 49.5938 34.5634 49.5033 34.5619 49.3118C34.5617 49.2823 34.4398 49.2488 34.3537 49.2249C33.7156 49.0453 33.7155 49.0454 33.6138 48.8497C33.5556 48.7298 33.4903 48.6075 33.4392 48.4851C33.3446 48.2845 33.1152 48.2346 32.4574 48.2761C32.2214 48.2901 31.9854 48.3089 31.7494 48.3205C31.399 48.3402 31.1337 48.2611 31.0682 48.1142C31.0318 48.0335 30.9882 47.9528 30.9518 47.872C31.3094 47.8498 31.3021 47.8474 31.9293 47.5458C32.193 47.4187 32.1931 47.4187 31.6842 47.2972C31.4907 47.2519 31.3042 47.2017 31.0964 47.159C31.0032 47.14 30.8816 47.1286 30.7815 47.1342C30.1879 47.168 29.6016 47.2065 29.0152 47.2451C28.0713 47.3059 28.0712 47.3059 27.1106 47.0624C27.0318 47.0433 26.9098 47.0074 26.924 46.9876C27.002 46.8962 27.1948 46.8556 27.4379 46.844C27.7955 46.8267 28.1459 46.7996 28.4962 46.7775C28.7322 46.7635 28.9682 46.7471 29.2042 46.7331C29.4252 46.6382 29.6535 46.5457 29.8602 46.4485C30.1882 46.2988 30.188 46.2939 29.7365 46.1941C29.4498 46.1274 29.1417 46.0682 28.8479 46.0065C28.4975 46.0286 28.14 46.0533 27.7895 46.073C27.3462 46.0983 27.1669 46.0529 27.0512 45.8942C26.9499 45.7549 27.0706 45.6338 27.4138 45.6019C27.7641 45.5699 28.0932 45.5479 28.271 45.4214C28.4418 45.2999 28.7418 45.251 29.1137 45.2386C29.3497 45.2295 29.5857 45.2106 29.8217 45.1942C30.1291 45.1724 30.2927 45.046 30.2272 44.9065C30.1907 44.8159 30.1186 44.7403 29.8394 44.7227C28.6011 44.6457 28.5867 44.6482 27.9702 44.4857C27.9128 44.4714 27.8696 44.4275 27.8909 44.4052C27.9264 44.3682 28.0047 44.3136 28.0905 44.3056C28.9127 44.2457 29.735 44.1907 30.5574 44.1479C30.8292 44.1337 31.0294 44.1151 31.1217 44.0236C31.2495 43.8974 31.1913 43.7825 30.9402 43.6983C30.8613 43.6719 30.7322 43.6385 30.6464 43.6415C29.7024 43.6925 28.7657 43.7557 27.8217 43.8067C27.7359 43.8122 27.5783 43.7716 27.5422 43.74C27.4702 43.6816 27.5769 43.6022 27.827 43.5734C28.1558 43.5342 28.492 43.5293 28.7128 43.405C29.0191 43.2285 29.3969 43.0662 29.739 42.8968C29.796 42.8669 29.8887 42.8098 29.8672 42.805C29.6879 42.7523 29.4801 42.712 29.2936 42.6618C28.9782 42.5782 28.9772 42.4579 29.0478 42.342C29.1043 42.2483 29.3186 42.2099 29.5833 42.208C29.6978 42.2072 29.8409 42.2062 29.9337 42.1834C30.1765 42.1276 30.2547 42.0583 30.1326 42.0076C30.0609 41.9787 29.9318 41.9379 29.846 41.9434C28.3157 42.0354 26.7781 42.125 25.2551 42.2366C24.8046 42.2693 24.5966 42.1775 24.3242 42.1132C24.1163 42.0631 23.9229 42.0449 23.6657 42.0836C23.4227 42.1197 23.1865 42.1018 23.0357 42.0218C22.9135 41.9564 23.1276 41.8984 23.7066 41.8304C23.8138 41.8174 23.9353 41.8091 24.0138 41.784C24.8416 41.5129 24.8415 41.5104 25.4136 41.472C25.9713 41.436 25.9715 41.4336 26.2636 41.2891C26.399 41.2218 26.5486 41.1544 26.6769 41.0848C26.7267 41.0574 26.8123 41.0077 26.7836 40.9932C26.6256 40.9182 26.4107 40.9026 26.1605 40.9216C25.6028 40.9673 24.9445 40.9377 24.653 41.173C24.5392 41.2622 24.3606 41.288 24.1031 41.3046C21.5145 41.4656 18.9259 41.6364 16.3301 41.7926C15.9082 41.8177 15.7159 41.9099 15.5521 42.0117C15.4097 42.0962 15.2525 42.1219 14.9808 42.1386C14.709 42.1553 14.4944 42.1642 14.3363 42.0843C14.2429 42.0359 14.3211 41.9666 14.5352 41.8963C14.842 41.7959 14.7838 41.6736 14.6827 41.5589C14.6106 41.4833 14.3884 41.4309 14.1523 41.4375C13.8019 41.4498 13.466 41.4792 13.1719 41.3831C12.9997 41.3279 12.7847 41.2902 12.5912 41.2424C12.2184 41.1445 11.8456 41.044 11.3238 41.1141C10.9659 41.0921 10.7149 41.0055 10.4282 40.9388C9.94795 40.8293 9.90489 40.8125 10.2473 40.6897C10.6326 40.5519 10.3306 40.3773 10.5442 40.2432C10.772 40.0991 11.0859 39.9717 11.3639 39.8371C11.4351 39.8022 11.4993 39.7699 11.5705 39.735C11.4056 39.6871 11.2549 39.6268 11.0615 39.5938C10.8108 39.5514 10.6815 39.4983 10.6947 39.346C10.6444 39.3243 10.6662 39.3806 10.7235 39.3949C10.788 39.4091 10.9454 39.3957 11.024 39.378C11.2239 39.3299 11.3235 39.2678 11.273 39.2166C11.2442 39.1898 11.1081 39.1564 11.0222 39.157C10.8648 39.1582 10.7294 39.2132 10.6875 39.346C9.88704 39.4525 9.05744 39.5075 8.22789 39.5528C8.14208 39.5583 8.03445 39.51 7.9341 39.4861C7.60435 39.405 7.60433 39.4075 6.63835 39.3898C6.53818 39.3881 6.40205 39.3547 6.3517 39.3207C6.14305 39.1725 6.14895 39.0079 6.04753 38.8491C6.23272 38.7446 6.41778 38.6426 6.61014 38.5406C6.99484 38.334 7.49431 38.1512 7.793 37.9257C7.72766 37.8058 7.64085 37.6862 7.95484 37.5857C8.84812 37.4565 8.84102 37.4566 9.08332 37.337C9.77461 36.9981 10.4587 36.6568 11.1786 36.3227C11.3711 36.2354 11.3708 36.1887 11.0271 36.1544C10.9197 36.1453 10.8051 36.1437 10.6906 36.1494C10.3331 36.1692 9.97572 36.2159 9.6251 36.2086C9.2745 36.2038 9.0161 36.0976 8.72942 36.0334C8.43556 35.9667 8.1417 35.8977 7.84782 35.8286C7.51164 35.8384 7.17601 35.9095 6.8389 35.8014C6.58068 35.7174 6.25828 35.6583 5.96441 35.5892C6.1847 35.401 6.59857 35.2557 6.91919 35.0889C7.21132 34.937 7.21833 34.9394 8.00435 34.8184C8.37593 34.7617 8.50251 34.4834 8.18709 34.4046C7.80715 34.3091 7.4059 34.2212 7.01884 34.1306C6.68266 34.1404 6.33987 34.2092 6.01707 34.101C5.76601 34.0194 5.47935 33.9649 5.06468 33.9998C4.36402 34.0589 3.64885 34.091 2.94096 34.1403C2.69784 34.1568 2.43299 34.1489 2.32502 34.0662C2.25302 34.0078 2.45985 33.9253 2.6958 33.9064C3.0533 33.8793 3.37496 33.8475 3.55284 33.7235C3.72356 33.5995 4.03801 33.5604 4.40988 33.5405C4.50999 33.5349 4.62431 33.5046 4.67415 33.4748C4.93056 33.3305 5.21577 33.2058 5.76667 33.2067C5.9952 33.156 6.11626 33.0937 6.04425 33.0353C6.00107 33.0037 5.85059 32.9631 5.76478 32.9686C5.17119 32.9974 4.57763 33.0262 3.99851 33.0746C3.72681 33.0962 3.51928 33.1025 3.347 33.0301C3.22499 32.9819 3.28885 32.9151 3.51721 32.8423C3.71703 32.7795 3.77376 32.7079 3.75879 32.6245C3.72149 32.4308 3.50638 32.3759 2.81969 32.3931C2.32615 32.4065 2.20427 32.3754 2.09564 32.2093C2.06671 32.1702 1.99487 32.1167 2.04473 32.0893C2.35103 31.9202 2.54972 31.7125 3.12857 31.6298C3.35726 31.5987 3.6004 31.597 3.74297 31.5321C3.88555 31.4672 4.0138 31.3927 4.16354 31.3302C4.34896 31.2552 4.47706 31.1856 4.39085 31.1396C4.24711 31.0571 4.0182 31.0514 3.75374 31.0827C3.525 31.1089 3.28179 31.1131 3.04583 31.1296C2.62396 31.1596 2.28014 31.0982 2.22921 30.9906C2.09103 30.7068 1.94567 30.4255 1.82179 30.1416C1.80721 30.1073 1.84253 30.0628 1.89953 30.033C2.09903 29.9284 2.31295 29.8287 2.51962 29.7265C2.76194 29.6094 3.14849 29.6287 3.4774 29.6043C3.94215 29.569 3.94201 29.5715 4.56254 29.3313C4.80503 29.2363 5.22743 29.2701 5.47716 29.1848C5.55564 29.1572 5.6769 29.1122 5.65525 29.0878C5.62638 29.0561 5.48318 29.0325 5.37575 29.0186C5.27548 29.0046 5.15383 28.9981 5.04658 29.0062C3.74513 29.0868 2.4509 29.1722 1.14942 29.2503C0.927745 29.2641 0.684075 29.2119 0.604778 29.1363C0.525521 29.0657 0.546231 28.9796 0.531281 28.8987C0.737949 28.7966 0.973199 28.7016 1.15119 28.5923C1.28646 28.5078 1.44358 28.4699 1.71539 28.463C2.07303 28.4531 2.42338 28.4211 2.82382 28.3961C3.56499 28.0323 4.29167 27.6515 5.09008 27.2873C5.41086 27.1402 5.33112 26.9934 5.39428 26.8383C5.45754 26.6954 5.937 26.7141 6.2586 26.67C6.51587 26.6338 6.60098 26.5546 6.5004 26.5013C6.44291 26.4698 6.31392 26.4339 6.21377 26.4347C5.97768 26.4363 5.74179 26.4601 5.5058 26.4741C5.26982 26.4881 4.99792 26.4827 4.8051 26.5258C4.61941 26.5664 4.49838 26.6508 4.37733 26.7228C4.24202 26.8024 4.06352 26.8307 3.7917 26.8375C3.4412 26.845 3.09085 26.8696 2.74044 26.8893C2.35337 26.7963 1.95192 26.7059 1.57912 26.6079C1.50742 26.5888 1.49259 26.5324 1.49945 26.4956C1.513 26.3997 1.40526 26.3415 1.1688 26.2966C0.968182 26.2588 0.80318 26.2035 0.616788 26.1557C0.759342 26.0884 0.916279 26.0234 1.03018 25.9514C1.27938 25.7998 1.59333 25.6896 2.13707 25.6906C2.35093 25.5933 2.52165 25.4742 2.80012 25.4059C3.06432 25.3402 3.51554 25.4008 3.7147 25.2545C3.8143 25.1826 3.96397 25.1005 4.15689 25.0696C4.46415 25.0208 4.86496 25.0425 5.04271 24.9037C5.1494 24.8244 5.30616 24.752 5.51347 24.7309C5.74938 24.7071 5.99251 24.7005 6.16383 24.6526C6.25664 24.6274 6.3565 24.5874 6.35623 24.553C6.35605 24.5309 6.21281 24.4976 6.11254 24.4836C6.0194 24.467 5.89755 24.4556 5.79028 24.4613C5.4327 24.4786 5.08237 24.5081 4.72479 24.5254C4.62467 24.5311 4.51011 24.5147 4.40268 24.5008C4.0876 24.4637 4.10863 24.4145 4.35832 24.3243C4.60803 24.2366 4.7861 24.1248 4.99276 24.0227C5.22155 24.0038 5.50773 24.0091 5.66475 23.9614C5.92884 23.8834 6.11392 23.7715 6.32778 23.6743C6.56374 23.6578 6.80692 23.6512 7.02848 23.6226C7.12141 23.6121 7.16394 23.5578 7.24238 23.5253C7.38497 23.4629 7.50599 23.3736 7.69891 23.3428C8.01333 23.2963 8.39978 23.3107 8.58471 23.1744C8.6914 23.0951 8.85521 23.0104 9.05549 23.0041C9.61342 22.9902 9.84843 22.8535 10.1336 22.7238C10.3474 22.6265 10.8057 22.6723 11.041 22.5749C11.1979 22.5124 11.3119 22.4354 11.4688 22.3754C11.533 22.3504 11.6687 22.3371 11.776 22.329C12.3623 22.288 12.9559 22.2567 13.5422 22.2132C13.6351 22.2051 13.7208 22.1677 13.7921 22.1377C13.9418 22.0728 14.034 21.9838 14.2197 21.9407C14.4053 21.8976 14.67 21.8957 14.8988 21.8818C15.6354 21.8397 15.6927 21.8491 16.0273 21.638C16.2978 21.4667 16.9642 21.5822 17.1845 21.394C17.3124 21.2851 17.5477 21.195 17.9697 21.1797C18.5633 21.1582 19.1496 21.1074 19.7431 21.0712C20.2722 21.0379 20.2651 21.038 20.8356 20.8055C21.0923 20.7006 21.4717 20.7126 21.8078 20.6905C22.1653 20.6683 22.4941 20.6365 22.6649 20.5125C22.8356 20.391 23.15 20.3494 23.5147 20.3296C23.8508 20.31 24.2302 20.3196 24.4941 20.2195C25.1361 19.9792 25.1289 19.9768 25.5794 19.949C26.2874 19.9046 26.9953 19.8602 27.7032 19.8134C28.1751 19.783 28.6687 19.7746 29.1118 19.7174C29.4334 19.6758 29.5754 19.5373 29.7821 19.4401C30.3684 19.399 30.9547 19.358 31.5411 19.3194C32.3634 19.2644 33.1929 19.2142 34.0224 19.1616C34.3793 19.0658 34.4279 18.8592 35.0287 18.845C35.3864 18.8376 35.7367 18.8031 36.0942 18.7809C36.6877 18.7423 37.274 18.6939 37.8676 18.6724C38.3182 18.6569 38.3957 18.5238 38.6312 18.4386C38.7096 18.4086 38.7809 18.3663 38.8738 18.3583C39.8033 18.2829 40.7618 18.2613 41.6695 18.1541C41.7624 18.1436 41.8479 18.0914 41.8691 18.0544C41.8832 18.0347 41.7613 17.9988 41.6825 17.9821C41.5893 17.9632 41.4676 17.9444 41.3675 17.95C38.4142 18.1357 35.461 18.3239 32.5077 18.5096C32.093 18.5372 32.093 18.5347 31.0864 18.812C31.0007 18.8347 30.9007 18.86 30.7934 18.8681C30.3215 18.9009 29.8423 18.9216 29.3776 18.9618C28.9987 18.9939 28.6838 18.9667 28.4112 18.8803C28.2176 18.8178 28.017 18.7997 27.7738 18.8063C27.502 18.8156 27.3235 18.8439 27.1666 18.9113C26.9599 19.0037 26.8535 19.1223 26.4173 19.15C24.4078 19.27 22.3984 19.4022 20.3962 19.5296C20.1169 19.4972 19.9806 19.4466 20.0516 19.3847C20.0943 19.3476 20.1797 19.2979 20.2656 19.2924C21.0879 19.2349 21.9173 19.1848 22.7397 19.1297C22.8541 19.1216 23.0115 19.1253 23.0757 19.1003C23.3896 18.9876 23.5027 18.8075 24.0964 18.791C24.4397 18.7812 24.7899 18.7418 25.1187 18.7051C25.2117 18.6946 25.2971 18.6424 25.3183 18.6054C25.3253 18.5858 25.2105 18.5497 25.1245 18.5332C24.8092 18.4642 24.4451 18.5528 24.13 18.506C24.0225 18.4896 23.872 18.4661 23.8503 18.4368C23.8358 18.4099 23.957 18.3648 24.0427 18.3372C24.1212 18.3121 24.2282 18.2892 24.3355 18.2811C25.2794 18.2178 26.2234 18.1521 27.1673 18.1011C27.5535 18.0812 27.8248 18.0178 27.9956 17.9037C28.1237 17.8193 28.2808 17.774 28.5239 17.76C30.1758 17.6572 31.8275 17.5447 33.4865 17.4493C33.9013 17.4267 34.1154 17.3442 34.2862 17.2374C34.4215 17.1529 34.5787 17.1223 34.8432 17.1057C37.2102 16.961 39.5627 16.8017 41.9297 16.662C42.3659 16.6367 42.4939 16.5302 42.7149 16.4378C42.7934 16.4053 42.843 16.3657 42.943 16.3453C43.043 16.325 43.1718 16.3265 43.2934 16.3207C45.1812 16.2016 47.0691 16.0751 48.9641 15.9633C49.4074 15.938 49.4922 15.8146 49.7204 15.727C49.7989 15.6994 49.8702 15.6548 49.9631 15.6467C51.3789 15.5531 52.7948 15.4643 54.2106 15.3732C55.1545 15.3124 56.0984 15.2516 57.0423 15.1932C57.5071 15.1653 57.5071 15.1629 58.1348 14.9251C58.2061 14.8976 58.3061 14.8649 58.399 14.8569C61.1163 14.6803 63.8264 14.5111 66.5437 14.3369C66.7725 14.3229 66.9366 14.2653 67.0504 14.181C67.1642 14.0967 67.3284 14.039 67.5501 14.0252C69.6738 13.8872 71.7975 13.7516 73.9285 13.6209C74.3147 13.5985 74.586 13.5376 74.7568 13.4259C74.8849 13.3415 75.042 13.2962 75.2851 13.2822C77.4089 13.1491 79.5327 13.0086 81.6637 12.8803C82.0713 12.8553 82.2709 12.7704 82.4704 12.6708C82.5417 12.6359 82.5985 12.579 82.6843 12.5735C83.7426 12.4971 84.7936 12.4184 85.8592 12.3641C86.3025 12.3413 86.452 12.2371 86.6301 12.1376C86.7725 12.058 86.9369 12.0298 87.2087 12.018C87.8023 11.9917 88.3886 11.9457 88.9677 11.8998C89.0535 11.8919 89.1604 11.8371 89.1673 11.8026C89.1811 11.7387 89.0161 11.6957 88.7441 11.6756C85.9124 11.8555 83.0736 12.0355 80.2419 12.2154C79.7771 12.2457 79.7771 12.2457 79.1494 12.4835C79.0781 12.511 78.9781 12.5437 78.878 12.5517C76.1607 12.7259 73.4506 12.8976 70.7333 13.0718C70.5045 13.0857 70.3404 13.1434 70.2266 13.2277C70.1128 13.312 69.9486 13.3696 69.7269 13.3835C67.1312 13.5494 64.5356 13.7179 61.9326 13.8765C61.5465 13.8989 61.2751 13.9573 61.1044 14.0715C60.9762 14.1559 60.8192 14.2012 60.5761 14.2152C58.0947 14.3705 55.6205 14.5332 53.132 14.6836C52.8817 14.6977 52.6952 14.6278 52.709 14.5614C52.7159 14.527 52.8226 14.4698 52.9084 14.4643C54.2026 14.374 55.4898 14.2812 56.7913 14.2105C57.2276 14.1877 57.3554 14.0788 57.5764 13.9864C57.6477 13.9539 57.7047 13.9118 57.7975 13.8939C57.8975 13.8736 58.0263 13.8751 58.1479 13.8693C61.2156 13.673 64.2833 13.4742 67.3582 13.2876C67.8016 13.2598 67.8863 13.1389 68.1146 13.0513C68.193 13.0213 68.2643 12.9766 68.3572 12.971C69.3011 12.9053 70.245 12.847 71.1889 12.7887C72.8407 12.6835 74.4925 12.5783 76.1515 12.4731C76.6306 12.4427 76.6306 12.4427 77.244 12.2075C77.3154 12.1799 77.4153 12.1449 77.5083 12.1393C81.8774 11.8599 86.2466 11.5806 90.6157 11.3037C90.8445 11.2898 91.0086 11.2321 91.1224 11.1478C91.2362 11.066 91.4002 11.0059 91.6219 10.9896C97.5284 10.6132 103.428 10.2369 109.334 9.86549C109.721 9.84062 109.992 9.78711 110.163 9.67049C110.284 9.58615 110.448 9.54079 110.691 9.52431C117.184 9.11185 123.677 8.69939 130.177 8.28442C134.546 8.00751 138.915 7.7257 143.284 7.4537C143.685 7.42873 143.899 7.35107 144.098 7.24898C144.162 7.21414 144.226 7.15721 144.312 7.15169C145.249 7.08358 146.185 7.02039 147.122 6.95719C147.416 7.02137 147.71 7.0831 148.004 7.14728C148.225 7.0524 148.439 6.9551 148.66 6.86022C150.076 6.77885 151.47 6.65835 152.9 6.6137C152.993 6.61058 153.094 6.65651 153.194 6.68034C153.86 6.83023 154.24 6.81522 154.66 6.60597C154.81 6.53124 154.938 6.46403 155.167 6.45011C155.875 6.40084 156.59 6.36623 157.291 6.30964C157.67 6.27991 157.984 6.30219 158.257 6.38862C158.451 6.45106 158.651 6.47664 158.887 6.46022C160.189 6.37721 161.483 6.29671 162.784 6.20879C162.877 6.20321 162.963 6.16085 163.034 6.13087C163.184 6.06597 163.312 5.99632 163.455 5.929C163.648 5.96935 163.863 5.99973 164.021 6.05261C164.222 6.115 164.408 6.11365 164.679 6.09451C169.871 5.76014 175.069 5.43309 180.261 5.09626C180.704 5.06853 180.898 5.17026 181.199 5.22211C181.299 5.24103 181.4 5.26485 181.507 5.26899C181.621 5.27307 181.743 5.25748 181.857 5.2493C185.755 5.00034 189.652 4.75381 193.549 4.50485C194.064 4.47169 194.064 4.47169 194.83 4.6184C194.924 4.63737 195.045 4.6586 195.145 4.65051C196.919 4.54202 198.692 4.42617 200.458 4.31528C200.687 4.30136 200.881 4.33924 201.089 4.39422C201.497 4.50176 201.526 4.50157 201.825 4.33738C201.968 4.26025 202.117 4.2125 202.353 4.18871C202.611 4.16231 202.818 4.16821 203.019 4.21096C203.306 4.27028 203.514 4.37188 203.95 4.34174C205.838 4.21279 207.733 4.10343 209.613 3.97207C210.042 3.94199 210.272 4.02381 210.559 4.08312C210.659 4.1045 210.752 4.1382 210.86 4.1448C210.967 4.15139 211.096 4.13327 211.21 4.12508C213.57 3.97555 215.937 3.82844 218.289 3.66914C218.732 3.63895 218.927 3.74311 219.227 3.79496C219.328 3.81388 219.442 3.84745 219.535 3.84187C220.951 3.75559 222.374 3.66432 223.79 3.57313C224.298 3.54002 224.298 3.54248 225.072 3.68668C225.165 3.70565 225.287 3.72442 225.387 3.71879C227.039 3.61608 228.698 3.51087 230.349 3.4057C230.857 3.3726 230.857 3.3726 232.325 3.48973C232.432 3.49877 232.547 3.5127 232.654 3.50702C234.542 3.38789 236.437 3.27114 238.324 3.14464C238.703 3.11982 239.018 3.1372 239.291 3.22362C239.485 3.28607 239.685 3.31165 239.921 3.29522C242.045 3.15966 244.176 3.02896 246.292 2.88609C246.7 2.85861 246.965 2.9107 247.252 2.97984C247.345 3.00372 247.438 3.03743 247.546 3.04647C247.653 3.05552 247.775 3.04482 247.889 3.03664C250.013 2.90108 252.144 2.77283 254.26 2.62751C254.689 2.59742 254.919 2.67924 255.206 2.73856C255.306 2.75993 255.413 2.80335 255.499 2.80028C256.329 2.75258 257.158 2.70981 257.981 2.64253C258.424 2.60497 258.618 2.71649 258.919 2.76834C259.019 2.78481 259.134 2.82083 259.227 2.81525C261 2.70676 262.774 2.59336 264.54 2.47756C264.79 2.46103 264.976 2.48177 265.177 2.54416C265.443 2.62818 265.751 2.66034 266.137 2.63056C266.959 2.56819 267.788 2.52296 268.618 2.47035C269.104 2.43985 269.104 2.43986 270.593 2.55683C270.701 2.56587 270.815 2.57977 270.922 2.57409C272.338 2.48535 273.761 2.39903 275.17 2.30298C275.549 2.2757 275.864 2.29553 276.136 2.38196C276.33 2.4444 276.523 2.47003 276.767 2.45355C278.068 2.37055 279.362 2.28759 280.664 2.20458C281.136 2.17419 281.608 2.12414 282.08 2.12075C282.423 2.12073 282.674 2.23677 282.983 2.29348C283.068 2.31005 283.211 2.2894 283.326 2.28367C284.978 2.17851 286.637 2.08065 288.281 1.96326C288.71 1.93317 288.94 2.015 289.227 2.07431C289.327 2.09569 289.434 2.13911 289.52 2.13604C290.114 2.10477 290.7 2.06373 291.294 2.02754C292.002 1.98318 292.717 1.94858 293.417 1.88953C293.989 1.84123 294.206 2.05326 294.664 2.05734C295.014 2.06219 295.372 2.01789 295.722 1.99573C296.43 1.95136 297.138 1.90209 297.846 1.86263C298.096 1.84856 298.289 1.80787 298.367 1.71892C298.381 1.70164 298.259 1.6657 298.18 1.64417C297.227 1.4006 297.227 1.40059 296.269 1.46148C295.675 1.50012 295.089 1.53871 294.495 1.57244C294.395 1.57807 294.281 1.55925 294.18 1.54524C293.894 1.50556 293.922 1.45626 294.165 1.36613C294.407 1.276 294.592 1.16666 294.799 1.06451C295.093 1.12623 295.379 1.18798 295.673 1.24971C295.909 1.23574 296.145 1.21933 296.381 1.20536C297.561 1.13305 298.741 1.05828 299.921 0.990879C300.007 0.985352 300.114 1.03369 300.215 1.05752C300.501 1.12666 300.759 1.18617 301.174 1.15618C302.232 1.07738 303.298 1.01817 304.356 0.949183C304.821 0.918838 304.821 0.91884 305.638 1.06519C305.731 1.08171 305.853 1.10048 305.953 1.09485C307.018 1.03072 308.077 0.961748 309.142 0.89517C309.371 0.88125 309.593 0.91157 309.758 0.981583C309.823 1.01058 309.809 1.05977 310.084 1.46044C310.931 1.78089 311.51 1.74237 312.096 1.7087C312.346 1.69463 312.568 1.68075 312.732 1.63046C312.818 1.60284 312.925 1.56279 312.925 1.53087C312.924 1.50632 312.767 1.46816 312.667 1.46397C311.958 1.41996 311.286 1.52792 310.592 1.555C310.271 1.56713 309.991 1.48321 309.933 1.34368C309.918 1.30451 309.896 1.26293 309.874 1.2238C309.853 1.18468 309.838 1.14305 309.816 1.10392C309.537 1.09365 309.373 1.13902 309.252 1.22336C309.152 1.29282 309.01 1.37241 308.817 1.41062C308.624 1.45129 308.359 1.44584 308.123 1.45981C307.895 1.47373 307.645 1.50744 307.43 1.4918C307.215 1.4737 307.043 1.40372 306.842 1.36097C306.749 1.33955 306.634 1.30847 306.541 1.31404C305.719 1.36169 304.904 1.40927 304.089 1.46914C303.66 1.50168 303.444 1.40013 303.172 1.33825C302.957 1.29069 302.742 1.3045 302.707 1.41768C302.616 1.6884 302.946 1.79896 303.676 1.74216C304.276 1.69366 304.82 1.68241 305.293 1.84596C305.358 1.86759 305.508 1.87633 305.601 1.87075C306.188 1.83707 306.767 1.79608 307.353 1.76241C307.46 1.75673 307.575 1.76571 307.675 1.77481C309.136 1.89689 309.136 1.89936 309.629 1.86635C309.865 1.84993 310.094 1.83601 310.069 1.463C310.517 1.0596 311.232 1.02746 311.926 0.963552C312.376 0.923489 312.57 1.03013 312.864 1.08448C312.964 1.10341 313.072 1.14191 313.165 1.13633C314.702 1.04426 316.232 0.947327 317.763 0.845493C318.02 0.828912 318.206 0.842309 318.407 0.9047C318.665 0.983865 318.952 1.03337 319.359 1.00098C320.174 0.936205 321.004 0.893427 321.833 0.838365C322.255 0.810782 322.255 0.810757 323.108 0.956851C323.201 0.973368 323.323 0.992135 323.423 0.986506C324.252 0.938809 325.075 0.881357 325.897 0.831257C326.126 0.817337 326.334 0.850214 326.513 0.915214C326.692 0.980214 326.907 1.01304 327.129 0.999169C327.958 0.949017 328.781 0.894022 329.603 0.843921C329.703 0.838292 329.825 0.854602 329.918 0.871119C330.792 1.01706 330.792 1.01703 331.193 0.989605C331.779 0.948566 332.38 0.927083 332.959 0.87382C333.524 0.820659 333.818 0.96093 334.205 1.03671C335.263 0.972643 336.329 0.918352 337.38 0.842056C337.809 0.809512 338.038 0.888875 338.325 0.950649C338.425 0.972025 338.526 1.01796 338.619 1.01483C338.977 1.00244 339.327 0.972923 339.677 0.950764C340.028 0.928606 340.385 0.906398 340.736 0.88424C341.137 0.952556 341.403 1.11759 341.975 1.05702C342.318 1.02018 342.683 1.01019 343.033 0.988034C343.383 0.965875 343.741 0.943668 344.091 0.92151C344.327 0.907538 344.571 0.898415 344.799 0.874676C345.221 0.834818 345.43 0.953637 345.73 1.00549C345.831 1.02195 345.945 1.05057 346.038 1.04499C346.746 1.00554 347.461 0.970939 348.155 0.909488C348.691 0.861443 349.057 0.932482 349.437 1.03287C349.515 1.0544 349.651 1.06569 349.752 1.06007C350.581 1.01237 351.403 0.954888 352.226 0.904788C352.447 0.890919 352.662 0.928655 352.842 0.991201C353.028 1.05615 353.236 1.0866 353.465 1.07268C354.287 1.02258 355.117 0.967501 355.939 0.9174C356.039 0.91177 356.161 0.93054 356.254 0.949512C357.056 1.09597 357.057 1.09842 357.528 1.06557C357.643 1.05738 357.764 1.05158 357.879 1.04339C358.465 1.00481 359.073 0.988182 359.645 0.92515C360.303 0.854136 360.783 0.934166 361.249 1.07076C361.835 1.03709 362.436 1.01558 363.008 0.962369C363.437 0.92246 363.666 1.0141 363.953 1.07342C364.053 1.09479 364.161 1.13821 364.247 1.13269C365.076 1.08499 365.906 1.04222 366.721 0.974982C367.164 0.937426 367.358 1.04649 367.659 1.1008C367.76 1.11972 367.867 1.15334 367.96 1.14776C368.432 1.12473 368.904 1.09186 369.376 1.06146C369.927 1.02559 369.927 1.02804 370.657 1.17255C371.001 1.24128 371.344 1.18235 371.681 1.16275C372.038 1.14054 372.374 1.1234 372.661 1.222C372.84 1.28454 373.055 1.32228 373.277 1.31087C373.749 1.28538 374.228 1.25985 374.693 1.21969C375.065 1.18755 375.387 1.20487 375.659 1.29375C375.853 1.35619 376.054 1.38669 376.29 1.37026C377.348 1.30374 378.413 1.23468 379.472 1.17061C379.565 1.16503 379.694 1.18621 379.78 1.20769C379.98 1.25044 380.174 1.29814 380.367 1.34585C380.832 1.32041 381.311 1.30718 381.769 1.26952C382.255 1.23165 382.699 1.21619 383.079 1.34849C383.158 1.37738 383.273 1.41827 383.366 1.41515C383.723 1.40276 384.074 1.3757 384.424 1.35354C384.774 1.33138 385.132 1.30917 385.482 1.28702C385.89 1.34546 386.15 1.52037 386.721 1.45979C387.065 1.42295 387.429 1.41297 387.78 1.39081C388.13 1.36865 388.488 1.34399 388.838 1.32428C388.952 1.31855 389.081 1.30534 389.181 1.31445C389.289 1.32349 389.382 1.3572 389.475 1.38109C389.762 1.45022 390.027 1.51953 390.435 1.47486C390.778 1.43802 391.143 1.42804 391.493 1.40342C391.972 1.37297 391.972 1.37298 392.767 1.52194C393.09 1.58346 393.454 1.49737 393.762 1.54917C393.97 1.5845 394.149 1.64458 394.35 1.68488C394.436 1.70144 394.572 1.70782 394.672 1.70219C395.144 1.6767 395.623 1.65118 396.088 1.61101C396.466 1.57883 396.782 1.60602 397.047 1.6925C397.241 1.75494 397.434 1.78057 397.677 1.7641C398.857 1.68688 400.037 1.61946 401.21 1.53492C401.61 1.50504 401.932 1.54447 402.155 1.63126C402.535 1.78074 403.07 1.59768 403.465 1.7176C403.708 1.79196 403.952 1.8786 404.396 1.83858C405.211 1.76889 406.04 1.72854 406.863 1.67844C407.156 1.74262 407.45 1.80681 407.751 1.87094C408.223 1.84054 408.695 1.81013 409.167 1.78219C409.518 1.76003 409.875 1.73537 410.225 1.71566C410.34 1.70993 410.461 1.69923 410.569 1.71074C410.676 1.72224 410.762 1.75355 410.863 1.77738C411.357 1.89413 411.357 1.89659 412.172 1.84163C412.523 1.81702 412.859 1.79987 413.153 1.89597C413.426 1.98485 413.748 1.99971 414.119 1.97003C414.82 1.9159 415.528 1.87398 416.243 1.83447C416.465 1.82061 416.673 1.86085 416.859 1.92335C417.139 2.022 417.482 2.00971 417.833 1.98019C418.297 1.94248 418.755 1.90483 419.15 2.03948C419.228 2.06837 419.35 2.10921 419.436 2.10614C420.023 2.08229 420.616 2.0633 421.188 2.01254C421.76 1.96179 422.041 2.11199 422.435 2.18281C423.021 2.14668 423.614 2.1105 424.201 2.07437C424.315 2.06618 424.451 2.04312 424.551 2.05468C424.974 2.1032 425.218 2.28557 425.797 2.22494C426.133 2.19061 426.498 2.17818 426.849 2.1683C426.942 2.16518 427.064 2.20602 427.128 2.23747C427.164 2.2544 427.129 2.3013 427.086 2.32615C426.958 2.39582 426.801 2.4608 426.687 2.53282C426.673 2.54274 426.809 2.58594 426.888 2.60501C427.081 2.64781 427.303 2.63887 427.56 2.61738C427.782 2.5986 428.011 2.63133 428.169 2.70385C428.234 2.73284 428.213 2.78209 428.078 2.9451C428.079 3.0654 428.229 3.01029 428.278 2.93137C428.356 2.81788 428.206 2.78214 427.92 2.84557C427.72 2.8912 427.621 2.95575 427.671 3.00695C427.7 3.03375 427.836 3.06714 428.078 2.9451C428.707 2.79328 429.179 2.76289 429.651 2.73249C429.772 2.72426 429.915 2.69866 430.001 2.71277C430.309 2.76948 430.596 2.83864 430.897 2.90276C431.24 2.88557 431.562 2.84641 431.899 2.93974C432.372 3.07137 432.393 3.05895 432.851 3.02865C433.087 3.01223 433.323 2.99828 433.559 2.98431C433.795 2.97033 433.981 3.00581 434.189 3.06079C434.612 3.17314 434.648 3.17287 434.925 3.01375C435.089 2.91682 435.203 2.88409 435.411 2.92679C436.099 3.07161 436.106 3.08137 436.693 3.03297C437.179 2.99265 437.637 2.97954 437.996 3.11691C438.24 3.21336 438.318 3.1907 438.51 3.0862C439.023 2.81 439.259 2.8132 440.227 3.00266C440.678 3.09272 441.142 2.98873 441.6 2.97317C441.986 2.96057 442.259 3.01753 442.289 3.17199C442.311 3.26758 442.376 3.33587 442.634 3.36593C442.734 3.37749 442.856 3.39379 442.956 3.38816C443.549 3.35444 444.136 3.31585 444.729 3.27721C445.029 3.25787 445.193 3.14132 445.135 2.98952C445.069 2.82795 445.183 2.76819 445.612 2.71846C445.869 2.68961 446.077 2.69305 446.285 2.73575C446.514 2.7832 446.45 2.82785 446.25 2.91767C445.773 3.13716 445.831 3.26929 446.447 3.41463C446.662 3.46464 446.834 3.51007 446.885 3.58582C446.914 3.62489 446.886 3.67665 446.95 3.70565C447.302 3.86761 447.789 3.96969 448.334 4.04435C448.855 3.97431 449.214 4.0822 449.615 4.1677C449.931 4.23418 450.302 4.1726 450.638 4.14563C451.017 4.1159 451.332 4.13327 451.605 4.22216C451.798 4.2846 451.999 4.31261 452.235 4.29864C452.707 4.26824 453.186 4.24762 453.651 4.205C454.051 4.16775 454.352 4.2147 454.603 4.29637C454.919 4.39967 455.269 4.32595 455.598 4.33831C456.042 4.35231 456.265 4.56921 456.844 4.50612C457.187 4.46929 457.545 4.45445 457.902 4.44206C457.995 4.43893 458.11 4.47985 458.189 4.50875C458.569 4.64105 459.013 4.63049 459.499 4.58772C459.835 4.5583 460.164 4.53139 460.494 4.62232C461.039 4.77553 461.641 4.90871 462.214 5.04944C462.294 5.1618 462.237 5.29476 462.646 5.35812C462.861 5.39094 463.061 5.44108 463.226 5.49636C463.427 5.56121 463.613 5.57706 463.871 5.55803C464.335 5.52032 464.822 5.50943 465.28 5.46195C465.701 5.41964 465.967 5.49878 466.225 5.57303C466.433 5.63292 466.626 5.66097 466.876 5.61499C467.133 5.5714 467.32 5.59706 467.528 5.66185C467.822 5.75058 467.843 5.74062 468.816 5.76064C468.916 5.76237 469.038 5.79831 469.096 5.82981C469.124 5.84679 469.06 5.89638 469.011 5.92129C468.946 5.95121 468.846 5.98628 468.754 5.99431C467.695 6.06575 466.63 6.12987 465.572 6.20131C465.464 6.20945 465.35 6.22747 465.271 6.25259C465.186 6.28021 465.079 6.31778 465.079 6.35215C465.079 6.3767 465.222 6.40514 465.323 6.42161C465.638 6.47581 466.009 6.38722 466.318 6.44884C466.525 6.48908 466.697 6.54676 466.905 6.58455C466.991 6.60111 467.127 6.59769 467.234 6.59201C467.592 6.57226 467.942 6.54519 468.3 6.52789C468.4 6.52472 468.515 6.54846 468.608 6.56743C469.296 6.70979 469.296 6.70979 469.889 6.67361C470.125 6.65964 470.375 6.62101 470.597 6.63414C470.812 6.64733 470.999 6.71228 471.192 6.75263C471.593 6.83813 471.973 6.92133 472.003 7.11261C472.018 7.18616 472.255 7.24828 472.491 7.2515C472.72 7.25476 472.963 7.22603 473.199 7.20961C473.757 7.17614 473.757 7.17614 474.48 7.3207C474.681 7.361 474.896 7.36436 475.153 7.33796C475.253 7.32742 475.375 7.33637 475.482 7.34788C475.833 7.38218 475.833 7.42882 475.605 7.51884C475.284 7.65127 475.313 7.66335 476.215 7.76735C476.559 7.80662 476.824 7.88328 477.111 7.94996C477.577 8.0571 477.57 8.05713 477.263 8.20418C477.192 8.23661 477.128 8.27145 477.057 8.30634C476.85 8.40357 476.686 8.50786 476.257 8.52076C475.785 8.53398 475.313 8.57666 474.841 8.60706C474.383 8.63735 474.262 8.69712 474.307 8.86376C474.358 9.06471 474.451 9.08614 475.274 9.07777C475.51 9.07608 475.718 9.09422 475.897 9.15922C475.812 9.2384 475.655 9.3009 475.426 9.31728C474.84 9.35832 474.246 9.39451 473.66 9.43064C473.188 9.46103 472.716 9.49142 472.244 9.52182C471.951 9.54111 471.766 9.67012 471.846 9.81194C471.889 9.89265 471.926 9.97341 471.962 10.0542C472.042 10.2156 472.193 10.2563 472.672 10.2455C472.794 10.2422 472.908 10.2217 473.022 10.2258C473.488 10.2396 473.711 10.4418 474.269 10.396C474.733 10.3583 475.22 10.3475 475.677 10.3C476.099 10.2577 476.336 10.3444 476.63 10.4086C476.73 10.4299 476.838 10.4758 476.924 10.4727C477.517 10.4414 478.111 10.4102 478.69 10.3594C478.962 10.3378 479.126 10.3513 479.341 10.4087C479.857 10.5474 479.872 10.5399 480.637 10.4902C481.195 10.4519 481.202 10.4567 481.918 10.6013C482.119 10.6416 482.334 10.6401 482.591 10.6186C482.927 10.5916 483.277 10.5498 483.628 10.5841C483.735 10.5932 483.872 10.6217 483.908 10.6533C483.929 10.6753 483.83 10.73 483.744 10.7478C483.115 10.88 482.378 10.8632 481.692 10.9197C481.477 10.936 481.262 10.8908 481.083 10.8258C480.896 10.7609 480.696 10.7353 480.453 10.7494C479.981 10.7798 479.502 10.8004 479.037 10.843C478.637 10.8803 478.357 10.8258 478.078 10.7517C477.984 10.7278 477.877 10.6819 477.784 10.685C476.725 10.7418 475.66 10.7985 474.609 10.8748C474.187 10.9073 473.943 10.8305 473.656 10.7663C473.556 10.7449 473.456 10.699 473.363 10.7021C473.005 10.7145 472.655 10.744 472.297 10.7662C470.996 10.8492 469.701 10.9322 468.4 11.0103C468.314 11.0158 468.206 10.965 468.106 10.9436C467.912 10.9008 467.712 10.8605 467.511 10.8202C467.154 10.8424 466.803 10.8695 466.446 10.8868C466.188 10.8985 465.96 10.9345 465.925 11.0281C465.904 11.0896 466.14 11.1443 466.391 11.1376C466.634 11.131 466.877 11.0998 467.077 11.1302C468.073 11.2802 468.073 11.2827 468.695 11.2463C469.239 11.2129 469.181 11.1888 469.661 11.3204C469.869 11.3778 470.056 11.4108 470.292 11.3944C470.878 11.3558 471.471 11.3172 472.065 11.2835C472.158 11.2779 472.28 11.3016 472.373 11.3205C473.075 11.4628 473.075 11.4677 473.654 11.4267C474.412 11.3771 474.441 11.3646 474.95 11.5107C475.301 11.6113 475.623 11.5378 475.959 11.5305C476.346 11.6234 476.769 11.7063 477.12 11.8118C477.536 11.9365 477.972 11.9113 478.444 11.871C478.795 11.8415 479.138 11.8292 479.425 11.9278C479.697 12.0192 480.026 12.0266 480.398 11.9994C480.734 11.9749 481.078 11.9258 481.429 11.9773C481.522 11.9913 481.665 12.0271 481.658 12.0493C481.651 12.0837 481.558 12.1335 481.465 12.1489C480.808 12.2543 480.086 12.257 479.392 12.3086C479.299 12.3167 479.177 12.2905 479.084 12.2715C478.884 12.2288 478.69 12.1786 478.496 12.1334C478.146 12.1506 477.788 12.1581 477.445 12.19C477.181 12.214 476.98 12.213 476.787 12.1555C476.607 12.1028 476.414 12.0379 476.199 12.0222C475.984 12.0066 475.734 12.0452 475.498 12.0616C475.262 12.0781 474.99 12.0726 474.805 12.1132C474.619 12.1539 474.505 12.2406 474.384 12.3102C474.249 12.3873 474.063 12.4132 473.791 12.4225C473.541 12.4317 473.34 12.4233 473.154 12.3559C473.075 12.327 472.967 12.3057 472.86 12.2868C472.76 12.2703 472.645 12.2441 472.552 12.2497C471.487 12.3138 470.428 12.3829 469.363 12.4494C468.834 12.4827 468.841 12.4826 467.738 12.3457C467.638 12.3341 467.516 12.3178 467.416 12.3235C466.822 12.3572 466.236 12.3958 465.642 12.4344C465.042 12.4731 465.049 12.4681 464.025 12.3208C463.838 12.2927 463.567 12.3339 463.345 12.3306C462.88 12.3217 462.649 12.1171 462.106 12.1603C461.641 12.198 461.155 12.2089 460.69 12.2564C460.268 12.2987 460.024 12.2145 459.738 12.1503C459.637 12.1289 459.53 12.0806 459.444 12.0861C458.378 12.1478 457.32 12.2168 455.904 12.2343C455.553 12.2368 455.711 12.2873 455.94 12.3028C456.269 12.3274 456.376 12.2751 456.197 12.1782C456.067 12.1104 455.881 12.0773 455.731 12.0956C455.652 12.106 455.552 12.1534 455.904 12.2343C456.276 12.3249 456.255 12.3766 456.32 12.4056C456.478 12.4757 456.7 12.5036 456.929 12.4921C457.286 12.4723 457.637 12.4453 457.994 12.428C458.094 12.4224 458.216 12.4387 458.309 12.4576C459.097 12.6042 459.105 12.614 459.941 12.549C460.206 12.53 460.399 12.5286 460.607 12.5737C460.893 12.6355 461.102 12.742 461.538 12.7045C462.117 12.6537 462.711 12.6224 463.304 12.5912C463.397 12.5856 463.498 12.6291 463.605 12.6479C463.899 12.7047 464.114 12.8137 464.55 12.7639C464.886 12.7247 465.251 12.7122 465.609 12.7023C465.702 12.6991 465.845 12.7374 465.888 12.769C465.974 12.8248 465.868 12.8919 465.625 12.9403C465.525 12.9607 465.389 12.9567 465.275 12.9649C464.803 12.9953 464.331 13.0282 463.859 13.0536C463.608 13.0677 463.373 13.1062 463.345 13.1973C463.324 13.2588 463.582 13.311 463.825 13.3043C464.183 13.2944 464.54 13.2722 464.883 13.2378C465.491 13.1794 466.02 13.1903 466.515 13.3414C466.867 13.4469 466.845 13.4078 467.219 13.7243C467.313 13.8047 467.592 13.81 467.835 13.8034C468.422 13.7869 468.694 13.8218 468.644 13.8982C468.581 13.992 468.374 14.0229 468.109 14.0371C467.637 14.0601 467.165 14.0954 466.693 14.1258C466.579 14.134 466.45 14.1497 466.343 14.1455C466.235 14.1414 466.135 14.1126 466.042 14.0912C465.841 14.046 465.669 13.976 465.454 13.9604C465.239 13.9448 464.989 13.9834 464.753 13.9998C464.517 14.0138 464.267 14.0524 464.053 14.0368C463.838 14.0211 463.658 13.9488 463.465 13.906C463.372 13.8845 463.257 13.851 463.164 13.8541C462.692 13.8771 462.22 13.9124 461.748 13.9404C461.169 13.9765 461.169 13.9765 460.467 13.8293C460.266 13.7865 460.058 13.7905 459.794 13.812C459.222 13.8554 459.215 13.8481 458.169 13.7132C458.069 13.6992 457.947 13.6829 457.847 13.691C456.781 13.7551 455.723 13.8241 454.665 13.8906C453.757 13.9487 453.757 13.9487 453.258 14.1978C452.887 14.3822 452.88 14.3822 453.246 14.463C453.539 14.5297 453.805 14.6284 454.127 14.6629C454.428 14.6951 454.799 14.582 455.129 14.6926C455.294 14.7478 455.509 14.8077 455.717 14.816C456.046 14.8259 456.396 14.7522 456.711 14.858C456.869 14.9108 457.106 14.9656 457.306 14.9666C457.657 14.969 458.014 14.9272 458.365 14.9075C458.472 14.9018 458.593 14.9009 458.694 14.9125C458.801 14.9264 458.894 14.9552 458.987 14.9791C459.274 15.0605 459.582 15.0976 459.954 15.0532C460.562 14.9801 461.105 15.0105 461.579 15.1643C461.643 15.1859 461.801 15.1872 461.901 15.1767C462.158 15.1503 462.38 15.1462 462.574 15.1915C462.652 15.2106 462.767 15.2441 462.753 15.2663C462.732 15.3033 462.646 15.353 462.553 15.3659C461.882 15.4542 461.159 15.4693 460.466 15.5184C460.373 15.524 460.258 15.4929 460.165 15.4715C459.964 15.4287 459.792 15.3563 459.577 15.3407C459.362 15.325 459.112 15.3588 458.876 15.3727C458.64 15.3867 458.39 15.4253 458.175 15.4121C457.961 15.3965 457.76 15.3366 457.588 15.2838C457.387 15.2238 457.194 15.2179 456.929 15.2443C456.586 15.2787 456.228 15.2862 455.878 15.3059C455.684 15.2606 455.491 15.2104 455.29 15.1677C455.197 15.1463 455.082 15.1201 454.982 15.1233C454.51 15.1463 454.038 15.1791 453.566 15.2095C453.094 15.2399 453.094 15.24 452.292 15.0935C452.199 15.077 452.077 15.0582 451.977 15.0639C451.383 15.0976 450.797 15.1386 450.203 15.1723C449.975 15.1862 449.767 15.1534 449.58 15.0884C449.401 15.0234 449.186 14.9881 448.964 15.002C448.02 15.0603 447.077 15.1162 446.133 15.1844C445.754 15.2117 445.432 15.1919 445.173 15.1054C444.872 15.0069 444.536 15.0338 444.186 15.056C443.392 15.1108 443.385 15.1084 442.876 14.9868C442.776 14.963 442.675 14.9171 442.582 14.9202C441.76 14.9629 440.93 15.0033 440.115 15.068C439.686 15.103 439.456 15.0188 439.17 14.957C439.069 14.9356 438.962 14.8897 438.876 14.8953C438.282 14.9265 437.689 14.9554 437.11 15.0086C436.53 15.0619 436.307 14.8352 435.871 14.8408C435.277 14.8475 434.691 14.9082 434.104 14.9467C433.632 14.9771 433.16 15.0075 432.688 15.0379C432.217 15.0683 431.745 15.0938 431.273 15.1291C431.022 15.1481 430.836 15.1273 430.628 15.0674C430.363 14.9883 430.048 14.9268 429.761 14.8552C429.324 14.7528 429.324 14.7527 428.795 14.786C428.68 14.7942 428.559 14.8 428.444 14.8082C427.579 14.8684 427.579 14.8635 426.476 14.7167C426.426 14.7097 426.297 14.7377 426.247 14.7577C426.098 14.8226 425.962 14.8923 425.827 14.9596C425.633 14.9217 425.397 14.9013 425.268 14.8457C424.902 14.6888 424.331 14.9114 423.958 14.7569C423.822 14.699 423.585 14.6491 423.37 14.6359C423.148 14.6228 422.898 14.659 422.669 14.6753C422.076 14.7164 422.076 14.714 421.57 14.9361C421.313 15.046 420.941 15.029 420.605 15.056C420.255 15.0855 419.918 15.1027 419.624 15.0041C419.359 14.9152 419.037 14.8954 418.658 14.9276C418.193 14.9678 417.714 14.9933 417.242 15.0188C417.142 15.0244 417.02 15.013 416.92 14.999C415.824 14.862 415.824 14.8596 415.295 14.8953C415.059 14.9117 414.816 14.9184 414.587 14.9421C414.201 14.9841 413.908 14.9347 413.628 14.8581C413.535 14.8343 413.427 14.7884 413.334 14.7915C412.862 14.8072 412.397 14.8326 411.932 14.8581C411.575 14.8778 411.217 14.8902 410.874 14.9271C410.302 14.9876 410.022 14.83 409.628 14.7592C409.041 14.7953 408.448 14.8217 407.862 14.8701C407.59 14.8917 407.411 14.8856 407.203 14.8282C406.938 14.7565 406.694 14.6747 406.265 14.7147C405.693 14.7679 405.092 14.7894 404.506 14.823C404.112 14.7498 403.824 14.5971 403.26 14.6577C402.916 14.6945 402.552 14.7045 402.201 14.7266C401.729 14.757 401.257 14.785 400.785 14.8179C400.278 14.851 400.285 14.8435 399.504 14.7043C399.053 14.6216 398.588 14.7207 398.13 14.7387C397.773 14.7536 397.595 14.8678 397.682 15.012C397.769 15.1562 397.577 15.2705 397.248 15.2925C396.425 15.3451 395.596 15.4002 394.774 15.4478C394.673 15.4534 394.552 15.4371 394.459 15.4206C393.577 15.2723 393.577 15.2747 393.184 15.2997C392.598 15.3407 391.997 15.3646 391.418 15.4154C391.018 15.4502 390.724 15.4008 390.466 15.3192C390.265 15.2568 390.079 15.2434 389.821 15.26C386.99 15.4448 384.158 15.6174 381.333 15.8071C380.911 15.8347 380.668 15.7652 380.381 15.701C380.281 15.6796 380.187 15.6336 380.087 15.6344C379.851 15.636 379.615 15.6598 379.379 15.6763C378.321 15.7428 377.263 15.8216 376.197 15.8734C375.746 15.8963 375.626 16.0101 375.433 16.1048C375.284 16.1771 375.112 16.2078 374.848 16.2195C374.59 16.2312 374.404 16.2202 374.203 16.1578C373.945 16.0762 373.651 16.0267 373.251 16.064C372.786 16.1066 372.314 16.1272 371.835 16.1577C371.592 16.1717 371.406 16.2172 371.328 16.3061C371.314 16.321 371.465 16.3567 371.551 16.3782C371.837 16.4498 372.11 16.5338 372.432 16.583C372.762 16.6322 373.119 16.5707 373.462 16.5535C373.584 16.5477 373.698 16.5322 373.813 16.5338C373.92 16.5355 374.049 16.5469 374.128 16.5684C374.501 16.6762 374.895 16.7495 375.409 16.6795C375.853 16.7082 376.084 16.9103 376.648 16.8522C376.992 16.8179 377.349 16.8006 377.707 16.7857C377.8 16.7826 377.9 16.8261 378.001 16.8475C378.287 16.9068 378.517 17.0033 378.946 16.9585C379.403 16.911 379.89 16.9002 380.354 16.8625C380.612 16.841 380.798 16.8568 380.999 16.9192C381.257 16.9984 381.551 17.0576 381.951 17.0155C382.294 16.9786 382.659 16.9686 383.009 16.944C383.467 16.9137 383.467 16.9162 384.284 17.0625C384.377 17.0791 384.499 17.0978 384.599 17.0922C385.192 17.0585 385.779 17.0174 386.372 16.9837C386.601 16.9698 386.823 17.0001 386.981 17.0702C387.046 17.0992 387.024 17.1484 387.046 17.19C385.866 17.2648 384.686 17.3297 383.514 17.4192C383.071 17.4543 382.869 17.3551 382.576 17.3007C382.475 17.2818 382.368 17.2408 382.275 17.2464C381.445 17.2941 380.623 17.3442 379.801 17.4041C379.543 17.4231 379.35 17.4147 379.156 17.3449C378.661 17.1594 378.061 17.2668 377.503 17.2978C377.074 17.3206 376.939 17.3977 376.99 17.5593C377.056 17.7504 377.314 17.8074 377.972 17.7683C378.208 17.7544 378.444 17.7355 378.68 17.724C378.909 17.7125 379.117 17.7429 379.303 17.8079C379.482 17.8729 379.697 17.9057 379.919 17.8943C380.391 17.8688 380.87 17.8433 381.328 17.8031C381.707 17.771 382.022 17.7932 382.287 17.8822C382.581 17.9807 382.924 17.9562 383.268 17.9316C384.069 17.8767 384.076 17.8792 384.577 17.9983C384.678 18.0221 384.778 18.0681 384.871 18.0649C385.694 18.0222 386.523 17.9843 387.331 17.9196C387.753 17.8871 387.997 17.9639 388.276 18.0257C388.377 18.0471 388.477 18.0955 388.57 18.0899C389.164 18.0587 389.757 18.0274 390.336 17.9766C390.608 17.9525 390.773 17.9661 390.995 18.0234C391.525 18.1644 391.54 18.1594 392.291 18.1074C392.519 18.091 392.77 18.0622 392.984 18.0803C393.199 18.0984 393.371 18.1684 393.572 18.2111C393.665 18.2301 393.78 18.2563 393.88 18.2506C394.352 18.2276 394.824 18.1948 395.296 18.1644C395.739 18.1342 395.739 18.1366 396.57 18.2829C396.907 18.3443 397.257 18.2878 397.593 18.2657C397.958 18.241 398.287 18.2386 398.567 18.3324C398.847 18.4261 399.183 18.4188 399.54 18.3966C399.876 18.3745 400.219 18.318 400.563 18.3819C401.351 18.5284 401.351 18.5308 401.838 18.4979C402.546 18.4511 403.246 18.4068 403.961 18.3648C404.054 18.3592 404.176 18.3878 404.269 18.4068C404.47 18.4495 404.642 18.5219 404.857 18.5376C405.072 18.5557 405.322 18.5244 405.551 18.508C406.287 18.4561 406.337 18.4386 406.832 18.5971C407.248 18.7266 407.762 18.5315 408.149 18.6809C408.372 18.7652 408.673 18.8318 409.087 18.7871C409.43 18.7502 409.788 18.7378 410.146 18.7156C410.71 18.6797 410.71 18.6821 411.427 18.8243C411.52 18.8433 411.642 18.8669 411.735 18.8613C412.207 18.8383 412.686 18.8177 413.144 18.7702C413.68 18.7148 414.024 18.8056 414.425 18.8936C414.741 18.9625 415.112 18.9009 415.448 18.874C415.813 18.8468 416.142 18.8518 416.415 18.9456C416.702 19.0417 417.038 19.027 417.395 19.0048C417.731 18.9852 418.074 18.9263 418.418 18.9926C419.156 19.1395 419.156 19.1395 419.693 19.1062C420.165 19.0758 420.636 19.0429 421.108 19.0199C421.201 19.0143 421.316 19.0454 421.409 19.0668C421.61 19.1096 421.782 19.182 421.997 19.1976C422.212 19.2133 422.462 19.1796 422.698 19.1656C422.934 19.1516 423.184 19.113 423.399 19.1262C423.613 19.1394 423.814 19.1993 423.986 19.2521C424.187 19.3145 424.373 19.3205 424.645 19.294C424.988 19.2596 425.346 19.2497 425.696 19.23C425.89 19.2752 426.09 19.3204 426.277 19.3707C426.47 19.4233 426.678 19.4169 426.942 19.3978C427.822 19.3326 427.829 19.3399 428.567 19.4868C428.904 19.5531 429.254 19.4941 429.59 19.4745C429.948 19.4523 430.284 19.4401 430.563 19.5363C430.836 19.6276 431.172 19.6375 431.53 19.6054C431.759 19.5842 432.002 19.5702 432.238 19.5611C432.345 19.5579 432.474 19.5668 432.553 19.5858C432.933 19.6862 433.306 19.7768 433.827 19.7068C434.285 19.7232 434.516 19.9228 435.066 19.8796C435.531 19.8419 436.017 19.831 436.475 19.7835C436.897 19.7412 437.198 19.8078 437.413 19.8922C437.801 20.0416 438.343 19.8315 438.73 19.9785C438.953 20.0628 439.239 20.1295 439.668 20.0896C440.14 20.0469 440.291 20.0974 440.428 20.251C440.507 20.3389 440.494 20.4102 440.351 20.4799C440.209 20.5522 440.051 20.541 439.822 20.4617C439.556 20.3727 439.241 20.3578 438.862 20.3801C438.49 20.4025 438.26 20.2765 437.952 20.2296C437.644 20.1802 437.28 20.2688 436.958 20.2048C436.198 20.0556 436.198 20.0556 435.683 20.0887C435.333 20.1109 434.968 20.1233 434.625 20.1602C434.218 20.2048 433.952 20.1306 433.673 20.0639C433.572 20.0401 433.472 19.9941 433.386 19.9972C432.563 20.0399 431.734 20.0803 430.919 20.1475C430.49 20.1825 430.26 20.0958 429.974 20.0365C429.873 20.0151 429.766 19.9717 429.68 19.9772C428.972 20.0167 428.271 20.0659 427.563 20.1127C427.428 20.18 427.278 20.2449 427.15 20.317C427.014 20.3916 426.829 20.4249 426.557 20.4244C426.106 20.4276 425.663 20.5339 425.212 20.407C424.746 20.2778 424.71 20.2854 424.26 20.3206C423.688 20.3664 423.079 20.361 422.544 20.4606C422.451 20.4784 422.351 20.5258 422.351 20.5601C422.344 20.5823 422.495 20.6131 422.588 20.6321C422.903 20.6888 423.267 20.6002 423.583 20.6593C423.79 20.6971 423.963 20.7548 424.17 20.795C424.256 20.8116 424.385 20.8082 424.499 20.805C424.621 20.8016 424.735 20.7836 424.85 20.7853C424.957 20.787 425.072 20.8008 425.158 20.8223C425.552 20.9128 425.968 20.9957 426.319 21.1037C426.663 21.2093 426.985 21.1333 427.328 21.1259C428.703 21.2879 428.703 21.2903 429.625 21.2297C429.854 21.2158 430.09 21.1994 430.326 21.2001C430.427 21.1994 430.52 21.2429 430.62 21.2667C430.907 21.3383 431.179 21.4027 431.58 21.3605C431.923 21.3237 432.288 21.3137 432.638 21.2891C433.11 21.2587 433.11 21.2587 433.912 21.4076C434.113 21.4454 434.328 21.439 434.585 21.4175C434.807 21.3987 435.036 21.4339 435.194 21.504C435.258 21.533 435.237 21.5822 435.259 21.6238C434.551 21.6682 433.836 21.7003 433.15 21.7642C432.706 21.8042 432.505 21.7 432.211 21.6457C432.111 21.6268 432.003 21.5858 431.911 21.5914C431.21 21.6333 430.509 21.68 429.808 21.7341C429.723 21.7397 429.616 21.7969 429.609 21.8313C429.595 21.8953 429.774 21.9553 430.032 21.951C430.375 21.9461 430.711 21.902 431.02 22.0004C431.278 22.0869 431.6 22.1239 431.979 22.0819C432.207 22.0582 432.451 22.0564 432.68 22.0351C433.287 21.9719 433.838 21.9802 434.297 22.1438C434.648 22.1855 434.991 22.1413 435.327 22.1168C435.578 22.0978 435.821 22.0789 436 22.1242C436.38 22.2197 436.753 22.3152 437.274 22.2452C437.84 22.3099 438.271 22.4516 438.744 22.5661C438.966 22.6209 439.138 22.6516 439.395 22.613C439.502 22.5975 439.631 22.5965 439.745 22.5883C439.981 22.5744 440.231 22.5357 440.446 22.5489C440.661 22.5646 440.84 22.6345 441.034 22.6773C441.127 22.6987 441.235 22.7348 441.327 22.7316C441.685 22.7168 442.035 22.6897 442.386 22.6676C442.736 22.6479 443.087 22.6282 443.437 22.6085C443.731 22.6702 444.032 22.7319 444.326 22.7936C444.798 22.7632 445.27 22.7328 445.735 22.7049C446.257 22.6717 446.256 22.6741 447.009 22.821C447.346 22.8873 447.703 22.8405 448.025 22.8063C448.561 22.7509 448.919 22.8416 449.299 22.9371C449.378 22.9562 449.521 22.9674 449.614 22.9569C449.986 22.9199 450.308 22.9446 450.58 23.0334C450.774 23.0959 450.968 23.124 451.204 23.11C452.026 23.0574 452.848 23.0024 453.671 22.9548C453.771 22.9491 453.885 22.9704 453.978 22.9894C454.709 23.1339 454.717 23.1412 455.253 23.0981C455.732 23.0603 456.175 23.0423 456.556 23.1746C456.634 23.2035 456.756 23.2444 456.842 23.2413C457.429 23.2126 458.022 23.1813 458.601 23.1354C458.866 23.1139 459.052 23.1199 459.26 23.1749C459.525 23.2442 459.762 23.3284 460.198 23.2934C461.406 23.1938 461.414 23.2085 462.846 23.3676C462.946 23.3792 463.082 23.3585 463.196 23.3479C463.439 23.3216 463.618 23.3547 463.833 23.4096C464.314 23.5338 464.328 23.5264 464.786 23.4961C465.136 23.4715 465.501 23.4639 465.844 23.4246C466.373 23.3668 466.724 23.4601 467.118 23.5481C467.434 23.617 467.798 23.5555 468.134 23.5309C468.499 23.5038 468.828 23.5088 469.101 23.6001C469.287 23.6626 469.488 23.6955 469.724 23.6816C470.546 23.6315 471.368 23.5764 472.191 23.5263C472.291 23.5207 472.413 23.5395 472.506 23.556C473.322 23.7023 473.323 23.7097 474.13 23.6474C474.388 23.6284 474.602 23.622 474.796 23.6721C474.982 23.7199 475.183 23.7651 475.377 23.8103C475.727 23.7906 476.085 23.7832 476.428 23.7512C476.692 23.7272 476.878 23.7357 477.086 23.7858C477.359 23.8501 477.588 23.9638 478.017 23.9043C478.239 23.8757 478.496 23.8812 478.718 23.8551C478.982 23.8213 479.162 23.8396 479.37 23.902C479.628 23.9762 479.893 24.0529 480.307 24.0106C480.765 23.9631 481.251 23.9523 481.716 23.9146C481.974 23.8931 482.153 23.9114 482.361 23.9738C482.619 24.0529 482.913 24.1024 483.313 24.0676C484.128 24.0004 484.135 24.0126 484.93 24.1615C485.131 24.1994 485.346 24.1929 485.603 24.1714C485.825 24.1527 486.054 24.1878 486.212 24.2579C486.363 24.3354 486.349 24.3846 486.363 24.4262ZM422.439 2.74256C422.203 2.75653 421.967 2.77295 421.622 2.56184C421.6 2.52516 421.614 2.48088 421.564 2.44933C421.449 2.38386 421.27 2.3385 421.055 2.33268C420.669 2.32564 420.204 2.41243 420.212 2.47621C420.219 2.53017 420.341 2.57593 420.578 2.61843C420.678 2.63489 420.757 2.66379 420.85 2.68276C421.123 2.73728 421.338 2.84623 421.731 2.78693C421.658 2.63524 421.695 2.71109 421.731 2.78693C421.696 2.88048 421.804 2.946 422.062 2.97115C422.133 2.978 422.241 2.97231 422.298 2.95717C422.519 2.90157 422.554 2.82768 422.388 2.63491C422.36 2.66703 422.382 2.72332 422.446 2.73759C422.511 2.75186 422.668 2.73847 422.746 2.72072C422.946 2.67263 423.046 2.61053 422.996 2.55934C422.967 2.53254 422.831 2.49915 422.745 2.49976C422.594 2.50084 422.459 2.55582 422.439 2.74256ZM480.512 30.7976C479.99 30.848 479.389 30.8351 478.867 30.9346C478.774 30.9525 478.682 30.9974 478.675 31.0318C478.668 31.0539 478.811 31.0848 478.897 31.1014C479.091 31.1393 479.305 31.1254 479.555 31.1114C479.934 31.0915 480.157 31.2028 480.451 31.2572C480.544 31.2737 480.666 31.2851 480.766 31.2794C481.345 31.2458 481.917 31.2098 482.496 31.1713C482.596 31.1632 482.704 31.1452 482.789 31.1225C483.075 31.0493 483.046 31.0028 482.766 30.9508C482.458 30.8941 482.214 30.7977 481.899 30.7533C481.448 30.6902 480.991 30.7819 480.512 30.7976ZM439.899 32.8817C439.548 32.9038 439.205 32.9259 438.854 32.9481C438.74 32.9563 438.618 32.9596 438.511 32.9702C438.289 32.989 438.125 33.0417 438.019 33.1235C438.184 33.1861 438.384 33.2215 438.606 33.2126C438.957 33.1953 439.3 33.1609 439.65 33.151C440.029 33.1385 440.252 33.2474 440.546 33.3017C440.639 33.3183 440.753 33.3199 440.861 33.3216C441.39 33.3276 441.711 33.1976 441.609 33.0191C441.537 32.8797 441.264 32.7982 440.935 32.8177C440.592 32.8374 440.242 32.8596 439.899 32.8817ZM482.93 27.1515C483.015 27.1092 483.108 27.0791 483.15 27.0419C483.278 26.9158 483.227 26.8229 482.99 26.7264C482.703 26.6081 482.353 26.6917 482.032 26.7062C481.953 26.7093 481.868 26.7614 481.825 26.7937C481.796 26.816 481.797 26.8626 481.84 26.8746C482.191 26.9703 482.564 27.0584 482.93 27.1515ZM420.811 20.3453C420.468 20.3675 420.118 20.3847 419.775 20.4142C419.689 20.4222 419.61 20.4694 419.561 20.5016C419.468 20.5612 419.569 20.6415 419.862 20.6468C420.199 20.6542 420.549 20.6099 420.899 20.5878C421.342 20.56 421.606 20.4673 421.441 20.3899C421.283 20.3149 421.069 20.3018 420.811 20.3453ZM44.1923 17.8045C44.4211 17.7906 44.6571 17.7791 44.8859 17.7602C45.1003 17.7415 45.2646 17.6863 45.3713 17.6045C45.1919 17.542 44.9912 17.5091 44.7695 17.518C44.4191 17.5353 44.0759 17.5574 43.7327 17.5844C43.5182 17.6007 43.3112 17.6562 43.2618 17.74C43.2122 17.8042 43.6917 17.8376 44.1923 17.8045ZM390.513 14.9383C390.606 14.9597 390.699 15.0032 390.792 15.0026C391.021 15.0009 391.257 14.9845 391.472 14.9584C391.565 14.9479 391.636 14.9032 391.678 14.8685C391.707 14.8462 391.699 14.807 391.656 14.7877C391.448 14.6713 390.618 14.719 390.483 14.855C390.469 14.8797 390.505 14.9113 390.513 14.9383ZM367.835 1.65686C367.857 1.69598 367.865 1.7352 367.894 1.77428C367.951 1.84752 368.109 1.90041 368.338 1.93559C368.517 1.87293 368.609 1.80353 368.601 1.72993C368.594 1.6907 368.572 1.65155 368.543 1.61248C368.485 1.53924 368.328 1.48638 368.099 1.4512C367.92 1.5114 367.835 1.58075 367.835 1.65686ZM499.509 32.8806C499.444 32.913 499.38 32.9453 499.309 32.9753C499.503 33.0451 499.682 33.0659 499.817 33.0257C499.903 33.0005 499.953 32.9633 500.017 32.9309C499.823 32.8611 499.651 32.8427 499.509 32.8806ZM495.061 33.2464C495.155 33.2679 495.241 33.2967 495.341 33.3107C495.506 33.3341 495.656 33.2913 495.769 33.2021C495.676 33.1806 495.59 33.1518 495.49 33.1378C495.325 33.1144 495.175 33.1572 495.061 33.2464ZM497.877 32.7769C497.827 32.8362 497.928 32.8846 498.193 32.9244C498.257 32.892 498.342 32.862 498.385 32.8273C498.456 32.7703 498.334 32.7196 498.076 32.6822C498.005 32.7122 497.941 32.7445 497.877 32.7769ZM482.754 30.2389C482.704 30.2982 482.805 30.3466 483.07 30.3864C483.134 30.354 483.219 30.324 483.262 30.2893C483.333 30.2323 483.211 30.1816 482.953 30.1442C482.882 30.1742 482.818 30.2065 482.754 30.2389ZM462.041 13.0151C461.977 13.0475 461.913 13.0799 461.842 13.1099C462.035 13.1797 462.214 13.2005 462.35 13.1602C462.436 13.1351 462.485 13.0979 462.549 13.0655C462.356 12.9957 462.184 12.9773 462.041 13.0151ZM442.259 3.94066C442.431 3.95661 442.574 3.92123 442.695 3.82952C442.601 3.80809 442.515 3.77924 442.415 3.76523C442.25 3.74187 442.1 3.78469 441.987 3.8739C442.08 3.89778 442.173 3.91918 442.259 3.94066ZM431.788 3.43893C431.724 3.47131 431.66 3.50369 431.589 3.53367C431.782 3.60347 431.961 3.62428 432.097 3.58402C432.183 3.55885 432.232 3.52167 432.296 3.48929C432.103 3.41948 431.931 3.40354 431.788 3.43893ZM360.796 1.70497C360.732 1.73735 360.668 1.76973 360.596 1.7997C360.79 1.86951 360.969 1.89031 361.105 1.85006C361.19 1.82489 361.24 1.7877 361.304 1.75533C361.111 1.68552 360.939 1.66957 360.796 1.70497ZM7.55546 24.2178C7.46228 24.1964 7.36919 24.175 7.28314 24.1511C7.07621 24.2189 7.01233 24.2807 7.12716 24.3265C7.19893 24.3554 7.3063 24.3719 7.39947 24.3933C7.61357 24.3255 7.66316 24.2662 7.55546 24.2178Z" fill="#00B2FF" />
</svg>